<mxfile host="app.diagrams.net" modified="2023-10-05T18:47:37.891Z" agent="5.0 (Windows NT 10.0; Win64; x64) AppleWebKit/537.36 (KHTML, like Gecko) Chrome/117.0.0.0 Safari/537.36" etag="2Yp8FpRHOQyLkDxA6y72" version="20.8.23" type="github">
  <diagram name="Page-1" id="M1Z1G9DGReV2R6s-h3Ue">
    <mxGraphModel dx="1035" dy="525" grid="1" gridSize="10" guides="1" tooltips="1" connect="1" arrows="1" fold="1" page="1" pageScale="1" pageWidth="850" pageHeight="1100" math="0" shadow="0">
      <root>
        <mxCell id="0" />
        <mxCell id="1" parent="0" />
        <mxCell id="WTdOhSceAi6wrpTnlXMO-1" value="" style="strokeWidth=1;shadow=0;dashed=0;align=center;html=1;shape=mxgraph.mockup.containers.browserWindow;rSize=0;strokeColor=#666666;strokeColor2=none;strokeColor3=#c4c4c4;mainText=,;recursiveResize=0;labelBackgroundColor=none;" vertex="1" parent="1">
          <mxGeometry x="50" y="190" width="810" height="2440" as="geometry" />
        </mxCell>
        <mxCell id="WTdOhSceAi6wrpTnlXMO-2" value="H.Habibi" style="strokeWidth=1;shadow=0;dashed=0;align=center;html=1;shape=mxgraph.mockup.containers.anchor;fontSize=17;fontColor=#666666;align=left;" vertex="1" parent="WTdOhSceAi6wrpTnlXMO-1">
          <mxGeometry x="60" y="12" width="110" height="26" as="geometry" />
        </mxCell>
        <mxCell id="WTdOhSceAi6wrpTnlXMO-64" value="" style="edgeStyle=orthogonalEdgeStyle;rounded=0;orthogonalLoop=1;jettySize=auto;html=1;fontSize=28;" edge="1" parent="WTdOhSceAi6wrpTnlXMO-1" source="WTdOhSceAi6wrpTnlXMO-3" target="WTdOhSceAi6wrpTnlXMO-2">
          <mxGeometry relative="1" as="geometry" />
        </mxCell>
        <mxCell id="WTdOhSceAi6wrpTnlXMO-3" value="https://www.h.habibi.com" style="strokeWidth=1;shadow=0;dashed=0;align=center;html=1;shape=mxgraph.mockup.containers.anchor;rSize=0;fontSize=17;fontColor=#666666;align=left;" vertex="1" parent="WTdOhSceAi6wrpTnlXMO-1">
          <mxGeometry x="130" y="60" width="250" height="26" as="geometry" />
        </mxCell>
        <mxCell id="WTdOhSceAi6wrpTnlXMO-10" value="&lt;b&gt;&lt;font style=&quot;font-size: 20px;&quot;&gt;H.Habibi&lt;/font&gt;&lt;/b&gt;" style="text;html=1;strokeColor=none;fillColor=none;align=center;verticalAlign=middle;whiteSpace=wrap;rounded=0;" vertex="1" parent="WTdOhSceAi6wrpTnlXMO-1">
          <mxGeometry x="350" y="130" width="60" height="30" as="geometry" />
        </mxCell>
        <mxCell id="WTdOhSceAi6wrpTnlXMO-11" value="About&amp;nbsp;" style="text;html=1;strokeColor=none;fillColor=none;align=center;verticalAlign=middle;whiteSpace=wrap;rounded=0;" vertex="1" parent="WTdOhSceAi6wrpTnlXMO-1">
          <mxGeometry x="20" y="130" width="50" height="30" as="geometry" />
        </mxCell>
        <mxCell id="WTdOhSceAi6wrpTnlXMO-12" value="Projects" style="text;html=1;strokeColor=none;fillColor=none;align=center;verticalAlign=middle;whiteSpace=wrap;rounded=0;" vertex="1" parent="WTdOhSceAi6wrpTnlXMO-1">
          <mxGeometry x="85" y="130" width="60" height="30" as="geometry" />
        </mxCell>
        <mxCell id="WTdOhSceAi6wrpTnlXMO-13" value="Cantact me" style="text;html=1;strokeColor=none;fillColor=none;align=center;verticalAlign=middle;whiteSpace=wrap;rounded=0;" vertex="1" parent="WTdOhSceAi6wrpTnlXMO-1">
          <mxGeometry x="660" y="130" width="75" height="30" as="geometry" />
        </mxCell>
        <mxCell id="WTdOhSceAi6wrpTnlXMO-14" value="" style="verticalLabelPosition=bottom;shadow=0;dashed=0;align=center;html=1;verticalAlign=top;strokeWidth=1;shape=mxgraph.mockup.containers.userFemale;strokeColor=#666666;strokeColor2=#008cff;" vertex="1" parent="WTdOhSceAi6wrpTnlXMO-1">
          <mxGeometry x="35" y="450" width="310" height="230" as="geometry" />
        </mxCell>
        <mxCell id="WTdOhSceAi6wrpTnlXMO-15" value="&lt;h1&gt;Hi, I am&lt;/h1&gt;&lt;div&gt;&lt;h1&gt;Hajar Habibi&lt;/h1&gt;&lt;/div&gt;&lt;div&gt;Software&amp;nbsp;&lt;span data-buffer=&quot;&lt;!--(figma)ZmlnLWtpd2koAAAAoD8AALW9e5xkSVXgH3Ezsx79nveTN6Ii4rwYBkQkH7cqsztfkzezenrUSbIqb3UlnZVZ5s2qnmJdFxERERERERERWUREFhFRERERFREVERFRERGRdV3WdV3XZfn58/f7noi4j6zuYfef5cN0nDhx4kTEiRMnTpyIvPV6rxFG0eBi2D3cC5W67myr1uwH3WKnq/hfs1Xx++VqsbnuB2R1L/A7mbxnqP1mBTgX1NabxTpQPuheqPsABQP0A194LRlaw7kfnKu1+x2/3ipKzeVmq1tbu9APqq1evdLvtdc7xYrUX3Fgv9JqSn41znf8tY4fVEEdC8p+0++Dblf79/f8zgWQx7PIjt+uC/JEpba2RnqyXK/5zW6/1KH1cjGQvp3K9O1sq9dhHL707HTQ7fjFhi0hf8bl7YivqTW7fqdY7tY2GGS9RsesaCi7tvjwKEJADwAraV4Xt7YQNCg4VPqtpumUMpnznVpXKunmdBi2dwZRCFmZoq7pBUSN1oYB9fnRZDiaXOzsj4Wm2Wo+6HdaFKhWxZQLBzuTT6TQB6UqrXKvwYgBdbnY3CgGQN56p9VrA+TWOsWG0OVLrVbdLzb7rTaD6tZaTZCFDb/cbXWAlkQGpMv1mmG74tfrtXYg4GoHIsZt5vxYx1/v1YudfrtVv7BumBynqWbFrzAVKd2Jrv+AdOkkgisL4lRwoVFqif6crjVprGmwSLxWPieiuiaoFtt+/3ytW+27uteWW80mPE0HryuLrpbqrfI5ctefr1XWjd7dAK+GjPTGhl+pFQFuqtbWq3X+k+KbAxjYwd7iwD7C7tSL0uit54tBtdbv0jK52zaKnVqxZPp/e9cBjzJAv4w8yD06JnFa/xiGZ3T5scUgqAVMaB/OrZ6UPe5K/fHrvpuqxyeMpDcdCkE+IdgZ7IXnR/Odbvjw3M7zo4P7e8WOT6miC25KNCNttIyWel34iNBZWGRzSbbSOi+jzl9tdgrtYqdYr7NCWUSNfscJa2kRXffXBLvsN9f7lSJyKJrGVyTPWuxJZlUyazXD9ZiBW/WKLxN2vMv69B9s1aSXJ9odv+KvoVuVfrvTKvuBaOlJhO/XpfxUrMX9oOb6eDpBNXr1bq1tkGcaxWavWO/Xmm0j42uq/gNFq4bXlqv+RseA17Wp5tDXtxi2BUVVpGc3tus9af6mYqfTOh8P82abi2VxS9BrNOhL/2yvyRQaBrcaTbwtaPt+udov9UrMH4jbzURjVDAkrU7RGIhHlcbhZNhguUp3UI5+t8pMrItRw+x2GsaU6kqxc84X1p4bpGhlTtYgS6yEpSKbL7fqrSRXMJpt6iwFGBEDmVVLjUqLVUF+xVaJs6uiY+gl4LGgtdbtGx7kjleLHTTW5YwJ9Tu+XZon/QfKyMmO/FTVzPbpoNjtJdbjjGkF4Jp6D1G1glpXmri2PRhNnPauBC0UH6RCoyo1poXWpKtgdIKS1MgDswUoKDRVzAy4XIKDyCl9vtawYi5gOs/WAJY2WEJiKZdru+x2wdZgHFrps111/G7ZCH6tJuPU6KtprWv1Nudvb4dbrsf5Gjanw2ZVZAFRqCqdVjvN6rUWFpCZbFYwRj3poFcqls8tonKyfsvG0C+10KgaygFa9doYX1Jdb503AF3o2j4EaES9Xy62RTPzaY4F1SmbzaEgTCvh1nQ2mI+mE+rEWwAtM7/IFVgz3No5P9U2rx4OZE/pzka75OI68O5XfTfzurm/uxnOepPRPIJvpyhDVe3aA349AND0mi1XKL3ydBLNZ+kMLzPz4JWUmyHpRlF2RY9+OLHngjIbLkB+DY6Vvq1RcBlDvRTMZ9NLYXE8ujihQsJMsVcwsQAao+pAzxKXB3toZDwehmtUQyf20rMLWuQig8jZrH9/r1Zn58XQgcw7nRITZn2CAuJD+TCgCWopu6Esp1tG/07yK5n8XeRXM/m7yR/L5O8hfzyTfxr5E5n8veRPlmudcrb1U3a0Z6cjkUwDV6IDVpX8DV9GoOOBe6XpdBwOJq29MFaQfK9pVypipJrsf8A66JWwzQb2HjAL2OirEX51Ohs9fzqZD8ZUd5YxM7fospGCd7bHzr1WMz1Ma2+Es/mIpSe4VpuiTNVSq9ttNYC8xnQ/Csv7s2g6Qz5sC0VsHwWq3GkFrLRaB1j7F3xZeqgeOQ/HyzTVLjIUbGEZFSefx9KTFEjKtTrQUkMsqlRZZopxZ4FWkvkz2dUNFvt01hjNZtKBZBWZWSfVBsACYRnZ0bqiwl5lEO1Ye+KV2YVBqVTBtbE5dj3k2811UOps25dUBxuSeO2KOKc5/+G96Wx+dA3lcHQw6Wx+bqGoGIGbY9rXMSJZsl59cDjdn6/PRkPLJG+XVUbiaQc9u8pyaZ32YD4PZxOKoKq1zQrBRhtbrc187s+nnTAaPR/WiYhMd4xkkn7oBPKkWne2P9ly6udVaoG4OMJT4VOzmwLoYH44DoPQjZ2p6wQtZx+7eN8kuox2WV3hIICr0SzLxpLr+o02G6w5BORjNghzHiaSvGK/AdTxboHhGGxdstOYjKmKgX4Q6ZoeaDZKPFIDW2qj1zR3hXStSL0SSiYmBjhnKpSn+3Ro5uotPVI9xO4mJ1fsdWXnymdYFQyrs/vRfLR9SPYRubSLZdzKDd+eN3I2X/K7561jgJTgE9hZNAYXJAeOoPag3++2sDJGQAsIlI5JrjXaeO7kpAQaK432NBrJ5LKfgHIdV8USYu/ZM44hOz8T28xew9mn2AatXGqLsyJy0wd1zO3oGDQkE5YszdpJXomnDlNg/S45x5LXvY6ZuBIbMmmuXG8ZjzWPs96PHW7yhV4bf9bvmxNDv9NrdmvmjLTEKqvUxLsxCrBco2uzQablM5weWP6Guyqu0XpfqrI1kdeNFudnXFNgz8K2IEetqrhgwHlbgDMhZAWbM577ElR4ycYx5shsRrhSwZ0kXaXsnH8hrnaM7EbLnquOA9txVM1cnkjyrDjyJ20TseKcsllOghtS+3R3NpjYKbUjvJUNl2NCt88OwdYrsoBMsZKZYlNFr3FEJ/XskWat00pOCrkMKt4p8hmc3RMKGUyyKSy1e0HV4hyz5RQT81pJUZbVaopIOB2Tw7TFOU7HU0zM6USKspwQU4xIOJ2yHWUSIYqZnV5AxvzOLGAty2sWcAnXa01LDuuYXpfFxTyvzyItyxuyqITjjZi3WrkvZeRuwnckzlFsYvXMkryZY0ILbzLF3OIPIlawnfFThEbKvVKtTIES1nFG49Jnsp6YJuuRU0OWWFKUF7oFTMHWXcAtWaue5JeDdsduCSvrqCdbboJYdaQJ4piFzAJhLdvVcXwR2T0v5uPEEWSVIxLok8HWbDoeV0Yza0notFtjX2YDQMLGQNu6mKG5WINwiBGbh5T7D7TZC61NLcNBnCqT0+s9diHtRYSEaAx4WenxFM/IgF55Osb10PmZWlX6Iv94m/yTG/BP3nonVH6YnD7kH68DCuoUcZl/cjv8kzecgvl0jwpbAqvnKr3nrDQEXmMwn40eVnpp9447yOvdO+4k8XbvuIskt3unIPO7dwqysHunIJfagxkWuTYZhtTzLu6PhuqhDNPjyrPHBQoPBuP9kDp63xwdblfeGlJqDnZDpXPbg93R+BB6HcleDeDBZB5tzUZ7c3I5od0YzEYDquzvhrPR1tro4v4M0bI7uyOyQu2YTwBNZMFEHIFNM4tVg73BFkq9UJdQAw6DGDGT18Qw3KnyKgzWZHJlgFkOGFKCBwbGn0Kdzfxma5cHexHKnFZh/ZnjpSbpxxmv7XPUk67nQPSTnLjoRCkFLIBisOuASxn+7Vju2W7hwvMvnjzeE4DpT2CEzOQkVDV02iw1HYS7sBptnQ9HF3fmC0QE5WRICUkN33+0tUCS8uFwYTaKtXAwNxP1N7rNSZIiVb6rbUjcaLxyOxB8TkZFagZKWnARzSUCPeISL7c6lSbpSnGtI+WrlaYxaseavYYM7TiOu0T1TrDvimhOVmx6Sjx60tMcfCU9UyyaQ8Q1ZZteyylK0usCm7++s2HiJzfIAie9MThvIsw3lYPzkt7MJAv+lnLZhBNvDax3dluVsB7p7c4PelSr05T+PVqEQvoY9kmR32MrXXNWftxavSjjeHxjvSNuwhMCdJb0iZxKpP2vWMOJJn1S1aZfWbXtflXX5r/6fps+uW3Tr5GTFulT6mslyX9tq23Sp3a6Jv26tq1/R/tcU+R0Zx0zRHoXqfTz7k63Lvl7SCX/tGKps0F6b7G0Ifmnk0q/79uwfJ6xQYdIn1mqn5f5+XpSoXsWqdB9Q/FcVcbx7PJZc4L8xvKaWVDPKbdNvljudYSuhMsg+TJGUtLKmuXvEwSU/qyR3kW6Tno3aZVmpb0aqfA/W7XjobV16U+92joreoMnbPycZg2HhLR1tv30+0jbZ9v3CZ/7z7afcQdp52z7jntIg/rZhtTrEjkW+h67o8zLhjhJpOdJpR8PNM41BH+hWTfu3YPN3rku6TexkUi/vpk0IP2WDQRO+lA76Aq+Tyr453bOdSQ/6LSrkm52eiWZ960AR5p02LX9CLtNc8bZZppk/i5uEFIj3dmw5aMNO+7nbZwz+nJpo9PtkI5J7yLdDQIsuFITUslPSe8m3SO9h/RbSZ9GOiO9lzQifTrpnFTktE/6DNKDIMD2K3WZVPg9TCr8DkmF3/NJhd+/IRV+30Yq/P4tqfD7dlLh9+9Ihd8LdBDcJQy/Q5c3TA9fKICw/E4BhOeLBBCm3yWAcH2xAML2uwUQvi8RQBh/jwDC+aUApqvfK4BwfpkAwvn7BBDOLxdAOH+/AML5FQII5x8QQDi/UgDh/IMCCOdXAZg+/5AAwvnVAgjnHxZAOL9GAOH8IwII59cKIJx/VADh/DoBhPOPCSCcXw9wt3D+cQGE8xsEEM4/IYBwfqMAwvnfCyCc3ySAcP5JAYTzmwUQzj8lgHB+C8A9wvmnBRDObxVAOP+MAML5bQII5/8ggHB+uwDC+WcFEM7vEEA4/5wAwvmdAE8Tzj8vgHB+lwDC+RcEEM6/KIBw/iUBhPO7BRDOvyyAcH6PAML5VwQQzu8FuFc4/6oAwvl9AgjnXxNAOL9fAOH86wII5w8IIJx/QwDh/JsCCOffEkA4fxDg6cL5twUQzh8SQDj/jgDC+cMCCOffFUA4/54Awvn3BRDOHxFAOP+BAML5owD3Cec/FEA4f0wA4fxHAgjnjwsgnP9YAOH8CQGE858IIJw/KYBw/lMBhPOfARgT9ecCCOdPCSCc/0IA4fxpAYTzXwognD8jgHD+KwGE82cFEM5/LYBw/pw+Gl/CRZuzXat7lI5dNU9808Zgb0+cJe1tz6a74t7Np/zrlcbTTaX15uE8jFRO28CW8nJcWu5IfiKeHX7ccDAfGNplldsYDcOp8ryYJrq7NxsL0dpozPm5LF5pcfg8YhlKr8ylU/iL0c5gOL0cAXo7uCREAnbwH/FIh+F8MBoD5UPGEomTgWd6QKQgJGIFvDQPd02I0xYtH4w2OcNuCbxibh5ss+7aW3nH/u82uYXnNRswtlW1ujkTnhNaJnfMdEZ5N5oJOKP0lghCPVd5U/FU5+LI5w5G0WgTr02rPIm7MDqlChEefaS29RK8J9H2dLardtTyyMzGS7RaMVB3Bzd8Il0HtTqYgORwUpMiwZyxGFxHPFumbVldQz57N3KtOmYxO9P98bAs/WsMJiDoz42zKaccKtPN45FUATixbWRrKN2Uvkyrk3sy0jVThCVWp8Ld6fNGZVpoE7RGxsv69IFRkpdqdS0B5oujCSchafn8aDhnYOq6BWzVeqnL6votaQlHWL04r24QJ7fBXFVQPuUVLoWHaqL0Ntj6aBJXYnYFUxldDOldjlMIOesaP1/lJeN84AI3EORgPrLj9HIDLvW7g4s0rAVsitTQ43jlmDi3bfy6rZ2BHBfCWQSFTnKmoVpFhuxFArcOwhnh1rA7YH7VGzydG5sYrAnJbTLrXBKN6X3ElqELF8eHezsRe4VeGiYXPRE7hV7e5Ph46Vv3p7Iw36T1Gctmgw5AQo9XthlMIp1Xar26PRiPN4m2rVEQqYk+toMizmjsUmn6MFxeq/VxckAvzukT8yRwy+l25k5/BXXS4cNhIt9T4+lFCfIbku60HI+9tb0dhXMsi1rVp3dHcWQvqXfNLjn429Zfp/W1Q45dB+Gwbjrxkpy+rmIRqZxP2GE6aekFaXmptFjCC9JiMS1Iq7BNX7LCWbpSFstupPBYkMCKw2cksPp/IIFjR0d7fGgHVzf9Z7Qnqpk+KC+/SVR0GKkhh2lrP93JO7cT03EgKBBBTBizCNJKUdppIgzYkhjOjaINjnSQcNC3dc+xdJZVoeTEqbwV7J49ZSLly2ZRspCk7AJAToBk9HnJFaMtWJFbxkxOZ2E9c8mIVdwezaJ5Ihdpiw5l80vrMnnKW96a7u4OGELJ7iZpmGFT2RXEoBmDTKDRAtq/kvlgeODs8dKVtme5kigHu9SMWAry0sgrZi67ntMWjMCBu8MqYXWQmUE3BjMmyUk62y0brDFaJTUl0wznl6eQu/EgnF2k/3yiRvyTjOpKuyDbMrcyyETLxEfqIa2Dw93N6dixj0yGdtmtLRwzYQ142iMEIxtFQN/DNUTDZsPUxWzRSrPjex6aAIc9cDiTHPOR1Xo4ke0NCbm2plnOej8K15jzdXEpGMfhxARaNG7AaHu7NRkfdpD6wWBsqHMVq+e13d39uYzO7D6Wr7fIl4yzXl4xYuV0wm1oLqGc2NS4kIUQsBPR+nR/r4b443WhB3Gdd2qhQaq1Ry42Aqs9YrnZBugs4v3fULTomAyhNvzfUQbh/JHZBeivyFK6BS4k5IYCe6vbo3F4zkogMoWwwDGjUZFGdYCPReRMWLaZQTerES4/Rs95bYXxCP9kdihT350G+5sScduETBAcwvQSi25vOmEB25aW9yfbY7kQlHudLMuVUdSLi0IWg1q13S7H9RuDiCVoJze3FWMtV723vzkeRTswk4alu91pNxzs1tPuSSPe0UZyNdxXWc+xqIO5DDvVSmHV2g4u01P0zBGLMuNjLXRhUd+uznfjrv8jzpiIwTjIzEhcxbK2T0gwpMbbu156gudivD2zKbDwczNM5L64hvnU7SuQJG7fUrQ3CwdDKJajnellZI3DWgqR4FBWKeQrXfEHjYGsTbbF6zbtbSg93LcLmMpeG99tKgWV8GC0FV9Mx/FuCWSYy3NdJrRkgm2ewRECl1ApedawVOzELiBWwlUul8/3zeFFH2mEDUwynK1QXGfpGA1Drw2Zj9H2CFON5lLL8vwI21ELGbLDt53N7woDtZLccipuPeIrEi1wUuJJLr4oyRGnZxwxZd5lE+KCQ8T0S/YRGdCy60AJN+ki9kU2TfQZ40lvaCUZtVwkcutgL//kAsY9RdFXMLBjSGoSpKpV+vFDqSvJiygaG5lomedtJmjD5ROIMkWVY4VqDjiaGBkaKlVoFjeIkZpwsuIOyL300sF5E5j1JO0TuzYEOXcZZK5a8z7nHTkuwpnpFNMDRfzuDgIVdNZNoJlgXhu2/fbd/Y17QHi2ZsABieUdccqK9re3uWdg2Y/EhTddY2Vt4ZHNZd+YEw9SuejgohgL41kz/2Q5i4pqf4alQK61PxfvQhxApRV2iulgF5c9hvwyFGvT2RYLV57EYHwuRaBX2J+Km9F0vD8P3S6NpdrKjupTWh1zXd5Yd00qr7bWb/q+u8Ap1s8XLwQAum58TnklgT2ey0DuVeZAoDwMcbJ0c5P93YBFz0RECr/MLXSOjpHFBrIMcEku7mPaZi6Hw0O/mMeVPbF4s4m6T62uY85RAHMAoRGdsIr3jlwbwwTBZUwBAjfvg1cURmbBebKuBeYJzyQQsCudl7sJq4zypoiEi4xO65xgPPfSNuevrdnHQXnCta2OQAX3GmQJM4TJN/wyG5Vty5rZeK92u1O8twkBc8QgZc7pfSQYVyViLuJ1T96TabJF7roNu4eiIyoQRmdlbhjCA36lf77qsxartXql31rr22JuTri/tY+dGSHr9IIrkYpecbaV9AJHGSEWJxeRIoEBDHAm640mOEOd2FbnrM2v435Td382ood6OIr2xoNDo8bHxQ0yWaO19L893ucs61rbMxkkSTVcJA6SVLhkB9o2ZZ1wPOCEsWMr5PcM0lbYJZTAYgJkIZmpBsSfr4TjkAMJSphv7I/nI2k9nK2NwvFww04FE7TFUkD2KIPO3kNy+cgAxT1sDCTCodL3FO4FhphaEs/Z05w1n0D52IIWEtu6JHX6C1eoy0kD/mS4J144YggdKPsY3cAb2osnf5PbSNuTL7GoksoArPJxW2oxmgy5XYtUg8TSiuQDICnnyrNWqXCbTL+wekaXuTWIUfZVRPymxFZtjGznaCYCKVxe4GVXYUKNGmB80GLE4tdLrfPWdrCgik40bKod+5g/rWWXoZdsO+ZWEVUF0sXJxO2I2CrOefNDS32TW6zC2y5WzYWQuY/2kidXOW5D+jE6L5mkqNAoPpAUseM9kBYtW5ZJ6UqZOy2/0+dCotaTxbKamINjYiAQo711PW5y3AWu01B2yk+sAfXXio2aeYZ00mTdhdkpkzkfN36aheqnfTlT97toEjf9xTIrGMw1TBp7bIq41iLaxYp7QXadRTTso5/rbc70ym1bN7Sksrl2u/FK+SpPz0XEL2GK01LmfjzYDOXgrfcs5Qjf7qUcrJy/2pgehM7pmo6H58wS5hiFfVtLbFeWtjoiijc7rBE8pEo03WfjMuo/FPW3+fIRfxVfKhxL42IUWOHo2yVswsRWo73ttKkxZc4C5QTumahB/vxoeDHEtKLPLH6PA6ipS5P+cESAQAaQn48wLfPB7l4tmt53L9c1sGYXnUEonBmUEIfDokThclt4pXEmLwWxSucqvvwsCDmr81UutEutYkdUX5unL6JKHhvAJUdcrLercrUlr0xEC4C0eTnufgziBawWpiJgRrC9eDrOLpV6WHpS7qgzBHYoOjIZ9Tpms8lQiQtMsJjel+Kt05ymbVTvaXs7gyhUS8ozgEXeu8dmFT93eJ7KZbKW4Olz6f4xZfxbi7pvYuVekNSinjGK2va8I0c/LPPbNWcDDl570mNo3+eNU90wfX+5h5nJIJ3CqFd4+kfcFvFrdpvFYi6rOx1o2wtHUTDdnrudIJAiGn2HJmw5nfT2hkyY68jPgVsbjccxzY+Rtw5UjPkJMK0De5yRVGxiXPZF24MuY1d/q7mrMtnKwtB+LXYAgH9GI4Gr7P5f0Jz1MkWpK/F3mnuqI+7A+73p8zjoBPssBSZ9FpqNw2xwwulPsdMHjel0Mh4R+x0fxi18is17h/CDBKPteJHcQwQLHTozbFPwxrggGbFB/1SMdi5jUvCWpMAc99KCn44LxGtM0W+N0Zn+4MDablD+yzoyyCFIIeF+Tf2eFbjBWcK45PczJdJhwX0kg7OdEuwfZLDSI8F9NHO8aA+wDhF3pPrX9VV7WEpI6eUHUI+AVWZDMOjEX9HtONu2tvJwQ3yb1myIIqgX5PTfx3NtvKd0st+v1fPhZrCL6+XfACUVskGIb8sWbMDfqsi3W3RiQTO69gHNtW1k6BcV9RV6P440wD3byJu4R8Ae9x6h+HNxMAMxycL/RJw30/wn4ojbXpwzy/aTSKx8F4P605guTByz41wA2tuO8mKlf0m5iFAr4XakPuvpl+LIZdCIMkLP9fd6boAy4Ldq9a1p1hoImQqJwwUJXr3B0/92emDWOWdyW2AG8P2LTRfxFi9OJFYcqc94+mUc5LmOKs7C0v4mkyV+588l8Y9Agihczeov6gUUcZUPav0lY37N6eUtWk3jjO3iXlyhLtueKqhfN3c37qR0Qwxb4hqGeXBxNtjbEduMs7aqbjyCsoRnE2z8JGxV3XQUZ0nPzVlGRW4Cs797+Cr12KugbYVuUrKB0kuYWD1ZPe4KpCXuCb7MRqNuVI+PYVu0IdlMXPpm9YRFjCU7z74eB97pWJqzxd8sEmqyBXEP9tUxbIu+xbCTSX+1Vk+OM7bsIacZXYdlsaj/aCRvIpcTAgK7u9NJXaIM+4RwmO5/t1CKZ/HwfH/AoSileAELKCGpjFh1oYyDrS1L9R1ZKrvfibyyJC/MkmBQ5FYQ9Hdm0QEeCkvqwXA2pehF2aLmvn3MZx8S7qnvukqh0wHFteJVSolXGy9DzdV3Z4vL8tDvgJvVDC7Zsh5W36PZibFAMfOx+klLmaz7D0MxYDz2luRW9QGuzCfYgYttjn/I0zDS6g9jdB35kP8jjkcP15l6iTL8JTuf6R1rzLk9n1lEGdfi9Z76a09mqYdTVzfxjLgfy+p3uey/yGF32Jq0uu4lH0Zb699PCgjrL5R8RCeXUOqNOfWXWoyDcHtzTn08VR1BRepVWr/INF4aDUdpsz9scF17myaoZ6nXMNSoOhh2uvUuZQz2TZkAy5IDrdY+kwjsJWN7li1k0V+f3qavONAWPIuaSWR1NcnYwm+IsCscIY9LalHfSJgquWrnOtRlbOFzhigchov5nXC5dzKTtQTFXfxc+nZGUouqCFiLWjakRdm1CwhLtCY441y91lO/mtmiW3YsDOu6K5C26jq2Ihup4LI8zVuSamQcCHfjvapuzeYtSdOijPlSj1WPymQtwf0Wg/arx6tHJxlb2LF58+O0J6rHpDlbHGzjVaTOxpPSrC1/0FawKKH4yizC0nxTaNyaSH1I669xsC3pp4Ipu6DaXUdQlnBb2l0Pp7vhHPf681rfnUVYmou25RgpVPcsoizdjlwgsj5Ry+lePdzGHKZSR8Q/oLMEHRH0EYpXphSl6Xw+3b0Klx88SnM1Rq9KidKSkWyFeyg7CxSd+6GjNN0pez6lKcmrzXkXP5c1GWHcGTXiNyvth+VQWNw8Elp9obc5Fe+C8VWNJwHuxx3O9jZBv8GhZYgJ8icc0owpwb7RYZlcXHQUXZbMmx2SpqzSMuyfcjjbVIJ+i0NLUwnypx3SNJVg3+qwgZlfi8ZuZoXyM94OW5Pd+hOZzNWj1e1Xw1vVaEfy4yYxMqqksN0uYwufZ/IyLiw7fbiUzVuSsUG1B0PZIyDZzeYtCQ2CKjMTmB6zSNWaetggz+7bH4tV1aHJ29KK+qg22WrSbceQBv7QFmGijdeSFnzMFhBKwG87q/7IZq3rQf7jNt9mG2N/D0bPl1pn1d8soE37NYIfEV36vC3KdtwWVdR/dEU7o/HQVV2fTeUXDn9rS1y3zBSC/U8LWKsEoP/Oog0bwz8Ix9sI5wsWH2/UVFF19X2cj0B2cDtnUfigTP3DTPr3W7T59VpT/YbNuT67maKl3/R2RxMGHapX5tVvyeYcZz64UMP0Ah3hNDFXbfUn3HMGE3R7fbDLWhrMZIF90kOB3IWenHCNN/69siDt3Vogseqk4GVpQYl2LqZ2DtP3fTplZXyAD2v1Ixlcl1pcFL42g6qkd4Y/qsNB8pugB9TrMlRtfIBwdhAGJixPp3+B04KJbFJo6DucL1OU/AjvuPqltK8EteSC8KNavVuzWOL7tS5Fqqt+JdNUl7DUdF9m+b1ZysaADP8Zm/SrmkxckhnB+yTeQlzf5NllmdrxQG6N3p9pIDAv3QKUbF40r+PEyPxB2tVayjpSr8zpz6ZFZiqQkImsqdfl1P/SNlRvXOh/0vr3XF5Cd/g4Np7/z1r/eSwbOc/Dg4Oe+scU53PGBvPfU0ydkZqjuHqRB+MEb2qz9bIP/48US32L++cUV0brmCzT1Uj9q9b/b1omjlYS8H6hp/6/TBHDVC/21P/wBklcNFIv8/R/8zhsH/kyyQn137TB9tAOZxpW1f9kFszh4irPP96h6cojFm+wFGlPfVGrj3kTVP7Io5S3a/UPdHUYctm1danOlrYvVyNf8tR3emP8UtT0YBReNrRvy6lX2y47dxMvVuNhOUe5jHhYlFGy9/woXucwnLZRmE0WFnuRepus5d09w+6tOfUf4ro0w6WAWWDvyat/9C6bcKu8ieGojchCdhf1Axl02f7QfVm90iErVgLB/uZ8Fsa/g3+Lp37QlZcHW5xtijCMmBP1Ko//25LaZG9/ntyL/YOnfswVyKbOLRDL7vUOU50eYLOMEr3ZU/8e23Pe4AMs/SWRO6P+SUQkywExuG5w0WrJTHVI/taxa4TzwVBE8Y8eCmJx/oHIUP29p7/bYdr4Eewlh41wsm/N+xc9/T2emefO9HJsgyP1Xk+9y6KxXvu7k4WSX7AlVLBaFRENVL9okZb8vOxLBv1LBPzcisVAjWUg08n2yFwyy0T89yvK26yh0dZoj8NbTPRPXOBJcGCXMoZUG2Jq/zNBcDk1dabTOdm/c9m4o0j6C3GtuimRK1mzLj7hIRJX5Bia7eWTnvqvMd5WaQ/2I0zan3lMpekmJ11/sr+7xkpk7tW/eOr/scaOAulsXPCvnvoOokLsMqjVMQNY9+DZA/Or/QlLisk7leZscUmU2+4a/kTEKfb09BVIS1wOTfATeZq10rJX8NdcibXkfoR1qmFIZuYBGqbg5kWMJavvjhhPfUQCyS0kLmeLG3MxL8zXJSwtBLdl85aktYmyL3zn4knqiUdxlvQBlJjJznpqeHBfcSXWkl/g3D0kaG0+DEF76qnqKUdQlvC5VggB531wkfq01l+7iLJ0WAMCQ2YSInERnqmeuoixZJtjow4SqCXip/XXZfKWYss+LRQdUG/W6o40a8uH2yiVRNsvEXkxc8hURVcgLTFWx7Q9XWMOtJIjfpy1BAd2LCWkbvUirg/1ZYngYU0/p/VLNZIzuilaQNnLdWRchPRHtg+qH8dky7Ej2GUh7SAaJvUNjo4oQ8T96iZDsi12RThRsLEuAAx/1hEyUczTlrnnQKbqm9U7YZvg6D1Mfp67sYeJB4sDOAsnlZGYdHly9C7HJTGcf6/Ve/TAvQf4B61+I96UbERU0HUzAxtuSyoQ3pxQlyAVWbPK/0yr3zLxzvGR50sf04Q9XYF4AmJ4YgJ6+dtxWSrdmkiRkQjBxzXH3CsoiukjoU9q9TuGAOUwF4EPqT82shjgNMy4LxE5uuseOdwUJziIMgGyAX7K+sJleNIkcpP5OKv+ImUgNy7C4REYfFpfCg+JXl28iGTfkFOf0QdTXDtfdoL2zozwJvL+ay09lb2LCMlOKdyeznABCY7JAB/S/9lF5uvs2RGOkP4ves50S7BLJK9emFP/lQmhozst4vasUzqKmzDFLhL5A6Yj38WWH81Tn/wlXri7GQ4Ng7fkuFkjjrfTCDG3BvVPOS7VUArmWWaZ7jlNwvr/kBeNdvfGHJ3i937twSQcy3Bf5w22GIkJQlW7jbosj1fl1ds9iXV1sDjq1Xn1sxmiurtBfod3ICRgTPMvzqt3JpgyVmd/l5GJX7sHM/XzSZkcF0uHAfstJe/y2A3jEsFRGKmX5PW7s1gOBu/T6pcTVCfktI4uG2X8Yk69JymRrphbGm618+pXEnyXWZ40MRV0/NMJNtia7kH58rz+K7YaYvqHqMjD6t2e+ry3iRIh942YlF4MpRf/62gJ6H/J4aKJFZ1ubwfIfD+Ssb0jr/6Th/s2GQ7ixSHo3/TUbzt07HEI+sOe+hCHLnZOIbRc1Gvy6ndwazKXoMzYhz3mnA0X7+zVnvpdes7hCLdkW65tXp9Xf+xZzWL+jRLSwXdrtuwtsRodG51Nzdcb82zOM4u1m/hx9efecLpFoJh4cJb3G/LqL+DNNQZiy97ec4zw9Ge9SHyPImwPwu5OuBvWR5vnWL3H1eeMMhXn89lokyBLpN6aV39jRmFmwAzlnXn1X/A/d/FZkp9wf5v65wTlfrL97ep/ehs0k/qxXm7AXrNHFtnoXbgO6lP5VoDycL+NxHINwUrPGLBalVd+3LSrdrEXyN277rbW5WtIgu/HSK9hP/aS6zUdlHdkku0n2IL5EOhaq3PePgtYMvlSsXzOIZYNwjw6WsGpw4U0jqf1W70lJEtQYoSfIbFBjJcYpBSR/SEVjtZaQo1CMrI8uCBTxWILo6hlq9n8km234naABafcQ8IsbI6Tcv+OlTR2E9DLvLoSBfU0+jCT9yJv87ReLPQpOYTVJTPd6RuweI1UnJKnPN4BjyOlPkUwycm5yN6C05+DDI3YmGTtWop3eiq3sYBRtzdqQWAf0aijj360fPxxvSPfVE3f3ngpstas2Nc1ufj5UPyGJ29f4KS1ChbhXuzE73LlE6MZrH1ktryIjB+YrSyikxdoqxu1oFaqi3LZp0mVYleelByP3zKdSF4WnUw+eClNmU70j4751CKNaf0KotMpke3H1XmduYLs6uyuKbU6FRDSYCLCax3S1Uzw1zm8aTHBXu+wtoEEfYP5xFGz25fPXvidbs28wLnRirLc6smTvcws3dSopY/HbpYXYnHmFilJBHmrFCW522KVku0o2atS5f3FjPJmSXzK0eBER8Gyqtg0EjUWalAPKa8MZPcbKmZ4vwfeC2U+BcKUxTbHzdhVr8gLP7fCusKVYySGmkNjdp9JWb4Plo9I50Mk7EdDepU+WLyCtTglkGfYfuAKto7GhyBlGYHEenlFs+W1XQOQZVh9EFZXlPsUpmz2XIH0zJLWOH0bD0AeUZlncir+dK5jlt1f08Z+L2ksU+5TmDYmSPURL24ppsNcTwbGh7Cv6z4EBec/TGuTGTPzmpsT3uNEyI72UU/lD6Zzu719zFOF3f2IfUxyH/fUkmXdTcg9PRe4Hk4uEpDG9FmCjZiDhx86x7PCPqeljYQldnzKDl6RzkV0at6FWyOC1KtkD+TJGV6kZp+ede3ng7Sjyx7odfLCLCt/R2gZuhO+sIOJumAWJCqceWvRCbeVV5ggI2uj6f4w3KavrIPnT3c3R+HawP6Os2nFm9vKVm8mFT+NSLMvgwvlq9OpfGpDVdaGavntQKdWwcz3A/Ox5j7doPO1ZtXv1Lp9eZFq34LagtxCC+mjEeQdD8Etxs+hDAvEFRn1ipXexI6LEAhCHIw34ho5tuBswCW/Z4TvqtekbmEus/V5NCY78uW9mbw3wtU3vCKiWGploXmDZzuVsIGFsUNyCrGZV2v78N7mUNyFyl1pU35lYr4/YkRIouPfeCAuLG6z7PflhxcgFmu3j/QN3WTpictssse1HrljiPwKyWH/ztNeLYNeZAKPufTpC56S8xmi+jLEXaFkNlqNNipuNnRFf3Hb5BO20l9tPSJfDnXs5faDce7Lc8r8AIZUy7D7fgW1sC+qvWKXfabqV9AQSORLe0Hffi9dinEaeuxC0lIvi3fPVRcjmyrnPhfI8us1y8WuD6jNF5Ldu1HPVkuNz8I7ewtvcGZFcwzKBSibVtVy501OpoNQUBKutKJZLpa79ldQKvDF/emaaU3nt8Lu6sSRM8h+4NfZ+02pc4SBCnRVJOUczGxjXE1xwpjO5HyLans4sgag63M0EucR0A0xW086qbzVPYdyo8nWGUFhhvFPrJ/RluGZt9wjDgy6EJmmw2HL4Chl5XTtow/WwDK329sgVzA5bFzcKE532b6YEq1WZeddjL2rM90LbT8od2rmEz+q3JZJ0+7LN145EHOXO1vcKCY0eTlHkxbOBkbGS8a5vF9Qy+0L3apBrqyLuVwNDPpYcL5m/Mfj51rybBjoRKcXCOZkqWi+4XSK04l8C9IsxNM1cdKJSvmZUCrGzb4gjgsraE1cyO5CYqxjkViPfKPyER83Mll7DomcrHmTVet1sR51YhLCWHn5MSCaB7fN/TGGyUzKi3LMEHsH3otIP371Jq+3w+Y+AYwZuXwpraDyxtEzK0X1mmlGJ944W0u/bj+1lLN9mNgDgbc6BjRsXppTWJUr2mVXlDfoyXmXQySjellOrQ4XUS/PqdwiSsSIdXhFTuWH08sTdjy8Mjm1YZYLqoDiRQggnGwdptglkQmync1bNvBXUMvyMnkWmU63tuuUo2grFXsWWxyNXuyA9ElLqRmgKhgNQAbKySiWiU6kFmM84wjd32sZq5Kr+kWKgfLB1aSh4q+zqrr5DJPumK+Zsc0vknm2WNli3IVssZMWZrlhP6oKifIfSOD0t5RCGccCvcJI9jjNbFH5VeiOLYjUa3N68UdAEROLdymf7tiF2Fk+BFxIOPuGi7c8SlvoguYCFtVIUAs3rehqUpC5aM2xx3TTGCB+3BUhwAKhWTRAKoirhSdEvaVdiTRUiTKDIr+c9G3DnQC6xl9krhn4e9iRy9MJcRCYDMZF0wvZLgcOQgicyB2BOf4m/IqGRHm3pt0Q/4f1iDhTXBdSbsS9FJMd5cJ9eD6lkd7bAWVGGZiLtCP3yvLzRblYpdyw6ciP/2KMvSVfkXDH+KqR4tUrI87H0gbZ1Ll25U7LhLZp7Ljt7xrXnVKuVvUJ1s9sYAncittUJ+dGxrHEjUhOLeI2xKapL+XUaTNhTphv8tQZ2LnmO7Q+t7GmuMfcDWEXJ73ZuDZphpc5/YC6dpG1enVOXbeIMqub2bveNBZcGu11pyJi5HtDgiodFneNc7+qbkSEds4jqumbkmyqI6/J6ZuPdNVKIdPXW44Q1GJVPwgTd01CwLcmShXQb7nbaZuLc0IxbvclKJt5YZ7+Tg03w62SChfTWyFG6px/If6FDNb8XBMngnN5k3BKvW5skH6g1Hqgj18G7LWDe0hybH/dclXO9OTy59K1Z0JKsilHqqBRa4N1bb0ea1Gl0/bFpuftm98GmbfYTLjXYHT00Vo8msp+g73VvtCv9MQ2xX6XJRbbIZX1rs2Hwx4aWBvC10tQpcMEmdsmLnrOuKP5yDb0phwHvZjUEtaQ5WkxDQ4bM7D4ZZ9N0Ub1vZNuDNFsq2cgbz6ao1K0NI8/hGQL8pflfhhdKezYWCm2JxRGXSRC+XJCX9vFYlYHkfxqdWWb9YY2ZXHiah2g5XKNdIwLwIsj1Ez2JfLHEXxm4k+YFjas5TUCOInGuAcEXm7fjAqsnFTRosAFFgXFCQDCdOygcnXmjTWevGjwVvbN2HQ8aHFD4q7lFruSv+r4ClcZ39Ii5Xknt6MCiqW4skF35HoIB2drMDkYRHIDE7qHgWwZe9zAjV23WTyeyVdCWWgmSmsrrVstzDfk7wCwzW3ZaOtTlLblhml9ujUw49lUXgYdsOmxSu3nb4ZHOVpOVfOso4NBpPoyB2GC45c4rkPD6XrPrF+4Bkdsgnl0Ahd3XZiYTK/LxLO0cJoPWFASSzffiwBy7eqd6Tzam85d1os4dTk4tgFJZTubhanNOaovx4B5tgaoFpuo6cSV5V21EgZ7j0PkvDaUX1mw6WPSoB4G4hew/DfZloMtAttyGqI513qk3p3Dc00sYeK1YBLSqL3q+AQGTOBfd+XNK95jm9qbxCTK3OxwEPCWp+x+prH34JdNwstJxruijxXpYw4oHg0YxjKKqpayNmmGl48MgUENk869N8epJT7gzmUTkYtG4bpcS9HEg1znCpHkTCv6aLNx94IFPvQuivlk0Hnzs0H1QcyYGIGy0TYWd7SolE6N3SSZV+9NVMvljZcexDUQXRTD1MaWD3Frvmx9yQdxnY4Z4iZrHqxQtWZlrkkHBFOIeG27OgUzjHI4HhOPrAlmKcFwvjOY5cU5bZuhqpx8brXGTmA0oUjg2YIchxuNWtdmvMWqGH3z9ADJ7BkuCEze0V1kTuXdMobb/fqUTC6QySHKKL+1wq5EpmOxxPV4EM1jpbPc1ftQqivRAWy4FfwQR5Us+zxqz2JO+Oc2F/UwXgo1jkfysSwvMvTJ4s/FQ7M/qWS6rmxaenSVjgZJjxxT1wmirPjvC500Non4ZmrzuKaKua2JLC1L1sESlRJ5RerDOb1MGZEQ+6UAQkEoAqYdgWOGsbBdm/c2xE1PAybiO4srGg7LHPbRAKpUQ1yczXAwZ0pZ/75EhExwR5W4Qkhyusc2RaPSIe/2iJbpM+LEuCZM6annPCQClhJBeC5LXHYT6/gWZIswW8nbWc279DNU78ipdDGoh/TKdJOGDhinWtarw5DtK2xansewBZgHY9kj9c6cPm5FHFvzSL0rJ9+0W7S93E7k9EmamtHb4+qUmbOYpmoNASvh9AK+fRX7S/WHxB12JDH7ikgWk3rNHrlUaSL1kZy+diszSx/FDT5YmI+P5dT1LPvzMyI4yO4G+ULlGs5owGyjRFrdmDFJsWmL1Ptz+qY5E+xM0Qdy6mbJBokUfzOnbkkmpWiOXgETdes2l9hRa9KF2NXV6radZP4/nlO3J+OlF3J77Y9DcdNs06zURI56MJlODmUOezHK7KVAmCsWPe50ZB19nJOAiSO6MtjbuX8/nB2mQb9FL7TZ5UDPRRV3gOs+GH2kHks5ch55k7ZoCU98D6vBGt6Mef4Z1kBKbZ+jRNqe3hyjXCbk45Y6ymsFgd/AmBEdx1Cjr9bvEsm5y4iVUeQC+9iPOfgO9/DG4No7BdQFLxG8yebmQCKVZZWnoZI4xAU8E7mPWCYogq51UGakPAzAdqFmYLt7pvJyBKonH8rCQW2kFxqYh7QLVBCtgojGpQIQy+7Lc2a/DebTPdxOWCQew6w53cXHteP3Fpb2KCqL+hGbkhoctl0N26FF2knK5fOYP5YppKXZdDDcolNcFS1Qby3K/TPUmNPXmfos07cXt6P+lljDXrwY21m0vT1Sn8OSNGCMLJT3WKESvck25bEmDWAu0p1WqDd42ihznP9EThdGwls6dDXlj9Qnc/qxRoXUi7VeEqg0iLAQdhN5tNyEDMbOVi0Ptrbog8qrlUiCYUESh16N813p67PVsThfZgunNYN+jjpuPjJBvwvqhAGdynKaN9m15KB1yjbcHhyOkTWI09HCqpErvk/l9JnM6JM18emcumYbThv2CMMwrjXca2gay4xN4rC1P49EFpOtMXaWYIPsTCjDdYawjdzZRx5S16MqBEiwYmM2tHFvMpwGcySvvpDTNxpUJ8ygbtqMFYOLDo7us3DLGqwg/Nb9EJVzodFldYtppzRDD3cCc6Rco8N26LeaMp9YAFFdkdtrPHXb3pSI4+Fkq8hEYoMguz35PTb3VaFxuOVLi4/Cu5wfyiOzmr2FqtMlRvCYymh7u7yzL4fo4xmpsSFp69ssJZ//aVKMLrHfGffNiCJvYTffBZurRTWmV6LQtLC0JdyjovlhGzLt7iA9QdHE8iYxHRE/ulAdoY+zrZ1DmtAre1fiVq9GHI/v2N7V8cdlfLG6cIPLEOIRwtJaSVFxxujkEKm/x3uRbEnaE7L8pkBt00JzkUNh72rYpU78Os/MlPLcn6ap9EmMtVfxn3PUCWlFlNQj1ABctcdXPYsLDZ9/xHBkw0oGqVbkos4vNmGm1uqtouwvOujKH4kB8or1mvmLufYqB0C+gNXxA/eHLwsNcxG1lL0QXY4b6YT2rV3a2NKXbyxpw3ItZLkuxVyLE3vfwEbzCPeTx5W3zYy5HD40UeZBJCHTvPG1LP65qhA+vDfD9KD7FvWCPL6Wu1VUL8qzvbhXcBbzboLvcS9qwxZ8LCz+jbw3RaXTBxxkaJAbEJvN0LxXK/k+nGs5iUiqa+Q1T3K35v4Ioc1qJC5/X8r+lS57sWHu+9xfRK3URCGA8v79vWJdJqzQbHH3KDkyS9w2yp9YNZJfTjJ9LudikpX1jvzF5Y4pIL+azWcJj9k/6HHczNQJWiE5aeewtia9OUWtpv0rdKfpr/kQUb/eap0z16dn0qEjrTDJJHL4V04LKbo4u7gvOwvLLK8T9W3Ek2SCfEw4cpbsi/OpikOjPIuP1Avz6bMbUUfcI1MicVw9BGH0859ZIbS7qLRfZJeNqwbcqbJWqT0S86Un1nDhVSxcxSf0wmRD2iEynzwiedmRvlgCn1K8Nm8X/ig8zA8yNAsjMy8fZSLkvQEBSV/m21y0m3CpvfjiBLr4sMozz5fSl0q5dbPI8sJFni4ITWGtU2z4JktuKTB/c9rllk0DLrPChLfMZ7fMvSebyHzwcJsg/bY8M+IG2ZfvIipUpWP/wrEetaQBz16sDsYbmHM8UDdB7NVabj7lBbGqx1dKxQ5X5XVpRMvf5rRLwWsWN0hyRfeJyXxV/kRAoXoX/y5V7+bf5eo9/LtSlT8LsFq9l3+PVeVwJqM9ntxnnVhrccUl0EnWHesrADwlNKergj2DlSO5ZuE67FrzpuG6nvx7fcNv9khvqMvfSbmxIribKl3+vbkiI75lrbbeMzxuBSoX224AtzXw3ElvZ9GSPEreljzab/DvY0SoxhI+NmgwLQCPk149nmsw4fOE+/nniZU1qf0VxVJJuvkkd5v8lR1p+as6MoCvdi9Wnix/fI/0a+Rvg5M+hdVI8rWB/YvgTz1Xkn5+HaaG5I7ACOhOGcxdgrhbBneP+3MwTyuZvwZzb6kiM/P0oG1sxH2mC884b5Jntmvlrh3w1wetXsd8s+pZtYaM5xs4LssIn10vlsyfZf3G+C9UP6fU63aNXIr2mQBQSfrvriNR7248eRVgK0NfdLGIgQJea/W6ltc6lwBYLTOT1QY00i35K6z1iv2i69m6v26fY5wTO9qRJ+rqubG6Ne3Fwj3Fto3u26YeXSrKXzwGKhPTadd9pp2mReYVt9pqzTVh4LtBrrkJXkdT5cOjlk+VeIGFaoFf7Jg/nnQ2+4LiZKruj2Ej7DWaia4+gaMfpz3H6YmVmrylbJk+PKmSfo70K2NBPUVqYo8Bv9ZOwFOdOO+QFG2Sft6JTyG9uAsbLq0+DY3PfuX26R3zJ53vI4kZPwNYeJtePbMrr1gAnt1lVy8Z3Som06nLVb98jvsaYE++lVn2jUbn6vbdR55O91xPCjGcqbMU48SAiXiXk9lfiefZtrkaUxwLyh2uiiz2uPnGmkCngnatmfTrNL0muYYEJTbKeK1ok231um7H96VV4OuZ71LL4m+QEZDeKPKzqJukg6Q3S2rbvMX0JBbWrTQh5IC3CVvS2yV1rB4lUmMHBywVud8SunP1lsxWvVHs3N8zNRr2SRAQetYw42kZ6kqtaInbCXS/VSzbvRP2YgzozIIJe2xqiR7npuTxFVaew32F32hXsa3S4let+SZ++dXYL7uwn8zy8TvmD5V9Ta0Z0A1b6+vi1Xa36LN5s0Lm3iC2Z1+PjWFy7BuXZ2FpCJjH2W+gpoj7G2V8pM+JndyOaBpabP6OdBBn7iLTjTN3k+nFmXvIbMSZp5ExqiqZe8k8IBnTxwuJ5X9Q9hA7dd+U7jDfLOvXLW2y3yLT6PedrB5iF103xqTfOPKLC08Po2FZfmdnvgJmPrdnQijWEwnZ4GX7fx3bf7bIB8/Gb75ZLtv+tuA5zZkgbmPKUWJEgOLoWS9XFk+27X5ewW2N/RKxSr9ETEZXCGOJ97RInMMMFs2fDL7KB4zJeeWr/tyDWJG1kMo8t+6mf4pTG0AwUgLCK2Jekx9tpB57YcFjz7zsw2k64rOPJg4uEBcyhMXZbOAYHdeFhRbERTLOmnzMOjlhoH7MPoCOzxpezUxpzpbET17yV/DCD5sLuzfnxQ2TFt+E/7VAZn6nk87q25jVK8p9CplabxAjGabj9xb4VY/87CcmjzVhJ1uuXu9dWSPTgbfTAZ/jvXEObdBJh3GeChIIfleWxuAgikz6i9ki+mCG/26GPx7Y32x5SWlXilSh1txgkxb7gOsZdPtsscbs6R52gdRr13vrZiPMBRcCa1LzgdWlNl62PCqQXuaINozlveppxRludw8nUk5Jp4lyuVzTetm5/x/zBgAAhVULUJTXFT733t1leTuIEgVlw/ioiRJlIYhwz3YqWlEYtZimMeaxlRVFWBQ0Ng8RVF4pRp2qlGikKVWi0TSmGbXKrs+YKkqN4xRfSRxRQ2KmMjU2YxOmPef+2GE6nZaB/b6959zzPhchJCiIWN3TsklFNtwsDW/ofD4YtXjOU0Xukhn5uVOnTfTNLUgvzpj809x8GAixIAZBvBgGNpsAkGAT9uzS+ctLfP5l4BDOVQAQChEM9GNgAAQkgADjBx4Fm7TP8hb6XBP+l/5AptFiBV+U5mISX8zxL/OV+b3Frpn+4pddk73+l7zl4ID/b+YNQQGMiGZLgkKItPv8hYv8Pl8ZbBfCeVZKkfZkRlpGund8Worb553oTvOmeX/u9U1wL3Cn+nw+b8b49BSfryA1BWTKpBSyOqhm4agoF+Xzg2qADXJMdp4r3+svhzxfwaLlJZCdx9/G9X17TPzbn63+nS2VNQAv2imkGltihKzb1jhYLf4k6aqNj0PoI8wODif9Uu5GRYGNvdFpRZR8HISQ1ddqMvtLhKPitdhkqrGsiU3Q/SXSUbEgMxGEkjXbXr/YX6IcK5fEUD2ErC0qjegvsfVZA1nbFj+vv8TeFwFJlvXu7i9x9Elssnbs5w/6S0IcKw8Nr4ZQIf6jRiBXXZ+Zp2Kvdm/t+OZYTP3TI2bd/qp9RW9rcUK7DezdIRBBNeKe2SAEnACRImoVTV20E0z+nCnlxNFznBwR+4ZVolKIKgGrBawRsFZANVVaQK2AOgH1AnaQ0TMC2oXtnIAOAY1SOAQ54GEJhfCHDbLGiVfCTFRDYXJzpDVWQ6umZV8fJodDIowSZKzCYbc//GNVxR+0GQJGQ6OABIgSQ6roKB5GwlhIluCwb6bC1w1uwp1bs9tUQ3GhIU9HjcPwzpYsOvhC1w1+Rs/p2qEf5HdpNenDaZqljCVfvIrmgKSsrjc9chLVj168pS/m3cAU51hMdd9DVbhgAU6PkJ43m5oMqmsPgoYcab5iabRM+TvePn+D/kj6+Meo/lER5kmsfhcZl+rXrYM/Dq/GpTrMc+DeSlRMkt4vw+7vQj3D5hagDN2TgEzUsTOP4pHmoXjubC5y+OqfF3+BN3dspTyaDKqPXO8b8tfXjlC2J7V6bN6f8Q9v3dUY1kmCeJQ9rQ4PEzWxXni2323Vw+bexDHzorX6bMQpupPdxsYYreLNXteJisvBpObObDRZbL87Gj+ecQB/cnA4YlgjyvyDnxmi4p/4FBe3fYgvHDqNbFH9dsp+c/ehMaCxELnp9ZqaBZLJgXu9KMd/OgIN4RaUL/wEFcWAJ+53Y++upchlVFmfrzfFXbRxr0F1c8dVQzYcv8/1QDV6gtOz9ugZZKy5sxElE3IDkhtCaJHDOQ2omAyx/QV/mLbdIL1/lYbMH/AzHLjmKKqvRk3ASPkuMpbGrEHJhGxYURMCvOEAwV00Fc3+ZbEha49OR05HcnWm7r+nVfd3Y5CH58nnJ+GFpKtasYr31nm9r2whzduftGL75FSH7tmGX88+aDWOhk8/1XWL502ryqLvOYpMxg3HlwfMwTe9FwMfuXrw1/6YoOJOPluQGeQKnP82P6i+37UPF20sCXKEjCYOJnGXOzSVN6hmrYsjlwlBxpCqzQFzQO4CvBnPZKS2qTHz1muaqKy6wZd1ZVGWVq/Gvqd//2Ovvj5znaa51dTx51iDr+nocR9oyYQ3SpbGKNx1agYaI9ceVNCcrdcn7r9jHUyPOI6nXwrqsbVUfJ7RxOo7lPJIvNLxLSpKwPSWY2dUK4LNhpALa1D2lTlpYfrI3oQrKMM7u8yI0Rr04HPrjyOj8ceEfNIqd3HxUM0fcMms0UjHMaQ8eQ13m+axP0arr5dalvDavW0IL9fOrWvRbHn5wo3IuK+MzDMRcNRoHM45a11Z/qtLxhoj9abAkJ7WqZYGt4KvMBobTNgoaxgvfIXdsg1GEIdzIijgqoBiQg0JpLrdXJOg2pswl8w/EmRdRnqZdhpypeMAj2xQ5aaf5okLMBobTLZMDg/8bkmAxmhOm5kWGtJM760NFEB2lmKnVKwsHtYU554s9fKXo2gEVeabTUOoki1tJg7qdoCRjcIx2m0KiJ6COI/qaT1F706cJ/mDt2hA4j2KRk8PXOOiBS7Rg94bbR3EXU42GoFlbuvK17MnetgGo9p20mUI98ho0KOMfIXR2GDCRlnDeOEr7JZtMIKYta7RrKtkYkaGTFpDxIQklogQoJlSeLjfZtGNHs+lIb8Z+gT+7cI5VC8cysFXvryN/AZXeO6juvHKJm6Ghx88Rslky+R2lA3FrYYoLi0TfudXbz6B6kLSs1hZ1Ibtb0+h/wi7rTeHX0rGqfvL/9ubA/8C(/figma)--&gt;&quot;&gt;&lt;/span&gt;&lt;span style=&quot;&quot;&gt;engineer&lt;/span&gt;&amp;nbsp;&lt;/div&gt;" style="text;html=1;strokeColor=none;fillColor=none;spacing=5;spacingTop=-20;whiteSpace=wrap;overflow=hidden;rounded=0;" vertex="1" parent="WTdOhSceAi6wrpTnlXMO-1">
          <mxGeometry x="70" y="240" width="190" height="120" as="geometry" />
        </mxCell>
        <mxCell id="WTdOhSceAi6wrpTnlXMO-16" value="&lt;font style=&quot;font-size: 10px;&quot;&gt;Download CV&lt;/font&gt;" style="strokeWidth=1;shadow=0;dashed=0;align=center;html=1;shape=mxgraph.mockup.buttons.button;strokeColor=#666666;fontColor=#ffffff;mainText=;buttonStyle=round;fontSize=17;fontStyle=1;fillColor=#00CC00;whiteSpace=wrap;" vertex="1" parent="WTdOhSceAi6wrpTnlXMO-1">
          <mxGeometry x="70" y="370" width="90" height="20" as="geometry" />
        </mxCell>
        <mxCell id="WTdOhSceAi6wrpTnlXMO-17" value="&lt;span style=&quot;font-weight: normal;&quot;&gt;&lt;font style=&quot;font-size: 13px;&quot;&gt;Learn more&lt;/font&gt;&lt;/span&gt;" style="strokeWidth=1;shadow=0;dashed=0;align=center;html=1;shape=mxgraph.mockup.buttons.button;strokeColor=#666666;fontColor=#ffffff;mainText=;buttonStyle=round;fontSize=17;fontStyle=1;fillColor=none;whiteSpace=wrap;" vertex="1" parent="WTdOhSceAi6wrpTnlXMO-1">
          <mxGeometry x="175" y="370" width="85" height="20" as="geometry" />
        </mxCell>
        <mxCell id="WTdOhSceAi6wrpTnlXMO-32" value="Skills" style="text;html=1;strokeColor=none;fillColor=none;align=center;verticalAlign=middle;whiteSpace=wrap;rounded=0;" vertex="1" parent="WTdOhSceAi6wrpTnlXMO-1">
          <mxGeometry x="585" y="130" width="60" height="30" as="geometry" />
        </mxCell>
        <mxCell id="WTdOhSceAi6wrpTnlXMO-33" value="&lt;h1 style=&quot;font-size: 23px;&quot;&gt;&lt;font style=&quot;font-size: 20px;&quot;&gt;About&lt;/font&gt;&lt;/h1&gt;&lt;div style=&quot;font-size: 28px;&quot;&gt;&lt;h2 style=&quot;box-sizing: border-box; border-width: 0px; border-style: solid; border-color: rgb(229, 231, 235); --tw-border-spacing-x: 0; --tw-border-spacing-y: 0; --tw-translate-x: 0; --tw-translate-y: 0; --tw-rotate: 0; --tw-skew-x: 0; --tw-skew-y: 0; --tw-scale-x: 1; --tw-scale-y: 1; --tw-pan-x: ; --tw-pan-y: ; --tw-pinch-zoom: ; --tw-scroll-snap-strictness: proximity; --tw-gradient-from-position: ; --tw-gradient-via-position: ; --tw-gradient-to-position: ; --tw-ordinal: ; --tw-slashed-zero: ; --tw-numeric-figure: ; --tw-numeric-spacing: ; --tw-numeric-fraction: ; --tw-ring-inset: ; --tw-ring-offset-width: 0px; --tw-ring-offset-color: #fff; --tw-ring-color: rgb(59 130 246 / .5); --tw-ring-offset-shadow: 0 0 #0000; --tw-ring-shadow: 0 0 #0000; --tw-shadow: 0 0 #0000; --tw-shadow-colored: 0 0 #0000; --tw-blur: ; --tw-brightness: ; --tw-contrast: ; --tw-grayscale: ; --tw-hue-rotate: ; --tw-invert: ; --tw-saturate: ; --tw-sepia: ; --tw-drop-shadow: ; --tw-backdrop-blur: ; --tw-backdrop-brightness: ; --tw-backdrop-contrast: ; --tw-backdrop-grayscale: ; --tw-backdrop-hue-rotate: ; --tw-backdrop-invert: ; --tw-backdrop-opacity: ; --tw-backdrop-saturate: ; --tw-backdrop-sepia: ; font-size: inherit; margin: 0px; color: rgb(255, 254, 249); font-family: Inter, ui-sans-serif, system-ui, -apple-system, BlinkMacSystemFont, &amp;quot;Segoe UI&amp;quot;, Roboto, &amp;quot;Helvetica Neue&amp;quot;, Arial, &amp;quot;Noto Sans&amp;quot;, sans-serif, &amp;quot;Apple Color Emoji&amp;quot;, &amp;quot;Segoe UI Emoji&amp;quot;, &amp;quot;Segoe UI Symbol&amp;quot;, &amp;quot;Noto Color Emoji&amp;quot;; background-color: rgb(6, 9, 24);&quot; aria-hidden=&quot;true&quot;&gt;P&lt;span style=&quot;box-sizing: border-box; border-width: 0px; border-style: solid; border-color: rgb(229, 231, 235); --tw-border-spacing-x: 0; --tw-border-spacing-y: 0; --tw-translate-x: 0; --tw-translate-y: 0; --tw-rotate: 0; --tw-skew-x: 0; --tw-skew-y: 0; --tw-scale-x: 1; --tw-scale-y: 1; --tw-pan-x: ; --tw-pan-y: ; --tw-pinch-zoom: ; --tw-scroll-snap-strictness: proximity; --tw-gradient-from-position: ; --tw-gradient-via-position: ; --tw-gradient-to-position: ; --tw-ordinal: ; --tw-slashed-zero: ; --tw-numeric-figure: ; --tw-numeric-spacing: ; --tw-numeric-fraction: ; --tw-ring-inset: ; --tw-ring-offset-width: 0px; --tw-ring-offset-color: #fff; --tw-ring-color: rgb(59 130 246 / .5); --tw-ring-offset-shadow: 0 0 #0000; --tw-ring-shadow: 0 0 #0000; --tw-shadow: 0 0 #0000; --tw-shadow-colored: 0 0 #0000; --tw-blur: ; --tw-brightness: ; --tw-contrast: ; --tw-grayscale: ; --tw-hue-rotate: ; --tw-invert: ; --tw-saturate: ; --tw-sepia: ; --tw-drop-shadow: ; --tw-backdrop-blur: ; --tw-backdrop-brightness: ; --tw-backdrop-contrast: ; --tw-backdrop-grayscale: ; --tw-backdrop-hue-rotate: ; --tw-backdrop-invert: ; --tw-backdrop-opacity: ; --tw-backdrop-saturate: ; --tw-backdrop-sepia: ; display: inline-block; opacity: 1; transform: none;&quot; class=&quot;inline-block whitespace-pre&quot;&gt;r&lt;/span&gt;&lt;span style=&quot;box-sizing: border-box; border-width: 0px; border-style: solid; border-color: rgb(229, 231, 235); --tw-border-spacing-x: 0; --tw-border-spacing-y: 0; --tw-translate-x: 0; --tw-translate-y: 0; --tw-rotate: 0; --tw-skew-x: 0; --tw-skew-y: 0; --tw-scale-x: 1; --tw-scale-y: 1; --tw-pan-x: ; --tw-pan-y: ; --tw-pinch-zoom: ; --tw-scroll-snap-strictness: proximity; --tw-gradient-from-position: ; --tw-gradient-via-position: ; --tw-gradient-to-position: ; --tw-ordinal: ; --tw-slashed-zero: ; --tw-numeric-figure: ; --tw-numeric-spacing: ; --tw-numeric-fraction: ; --tw-ring-inset: ; --tw-ring-offset-width: 0px; --tw-ring-offset-color: #fff; --tw-ring-color: rgb(59 130 246 / .5); --tw-ring-offset-shadow: 0 0 #0000; --tw-ring-shadow: 0 0 #0000; --tw-shadow: 0 0 #0000; --tw-shadow-colored: 0 0 #0000; --tw-blur: ; --tw-brightness: ; --tw-contrast: ; --tw-grayscale: ; --tw-hue-rotate: ; --tw-invert: ; --tw-saturate: ; --tw-sepia: ; --tw-drop-shadow: ; --tw-backdrop-blur: ; --tw-backdrop-brightness: ; --tw-backdrop-contrast: ; --tw-backdrop-grayscale: ; --tw-backdrop-hue-rotate: ; --tw-backdrop-invert: ; --tw-backdrop-opacity: ; --tw-backdrop-saturate: ; --tw-backdrop-sepia: ; display: inline-block; opacity: 1; transform: none;&quot; class=&quot;inline-block whitespace-pre&quot;&gt;o&lt;/span&gt;&lt;span style=&quot;box-sizing: border-box; border-width: 0px; border-style: solid; border-color: rgb(229, 231, 235); --tw-border-spacing-x: 0; --tw-border-spacing-y: 0; --tw-translate-x: 0; --tw-translate-y: 0; --tw-rotate: 0; --tw-skew-x: 0; --tw-skew-y: 0; --tw-scale-x: 1; --tw-scale-y: 1; --tw-pan-x: ; --tw-pan-y: ; --tw-pinch-zoom: ; --tw-scroll-snap-strictness: proximity; --tw-gradient-from-position: ; --tw-gradient-via-position: ; --tw-gradient-to-position: ; --tw-ordinal: ; --tw-slashed-zero: ; --tw-numeric-figure: ; --tw-numeric-spacing: ; --tw-numeric-fraction: ; --tw-ring-inset: ; --tw-ring-offset-width: 0px; --tw-ring-offset-color: #fff; --tw-ring-color: rgb(59 130 246 / .5); --tw-ring-offset-shadow: 0 0 #0000; --tw-ring-shadow: 0 0 #0000; --tw-shadow: 0 0 #0000; --tw-shadow-colored: 0 0 #0000; --tw-blur: ; --tw-brightness: ; --tw-contrast: ; --tw-grayscale: ; --tw-hue-rotate: ; --tw-invert: ; --tw-saturate: ; --tw-sepia: ; --tw-drop-shadow: ; --tw-backdrop-blur: ; --tw-backdrop-brightness: ; --tw-backdrop-contrast: ; --tw-backdrop-grayscale: ; --tw-backdrop-hue-rotate: ; --tw-backdrop-invert: ; --tw-backdrop-opacity: ; --tw-backdrop-saturate: ; --tw-backdrop-sepia: ; display: inline-block; opacity: 1; transform: none;&quot; class=&quot;inline-block whitespace-pre&quot;&gt;b&lt;/span&gt;&lt;span style=&quot;box-sizing: border-box; border-width: 0px; border-style: solid; border-color: rgb(229, 231, 235); --tw-border-spacing-x: 0; --tw-border-spacing-y: 0; --tw-translate-x: 0; --tw-translate-y: 0; --tw-rotate: 0; --tw-skew-x: 0; --tw-skew-y: 0; --tw-scale-x: 1; --tw-scale-y: 1; --tw-pan-x: ; --tw-pan-y: ; --tw-pinch-zoom: ; --tw-scroll-snap-strictness: proximity; --tw-gradient-from-position: ; --tw-gradient-via-position: ; --tw-gradient-to-position: ; --tw-ordinal: ; --tw-slashed-zero: ; --tw-numeric-figure: ; --tw-numeric-spacing: ; --tw-numeric-fraction: ; --tw-ring-inset: ; --tw-ring-offset-width: 0px; --tw-ring-offset-color: #fff; --tw-ring-color: rgb(59 130 246 / .5); --tw-ring-offset-shadow: 0 0 #0000; --tw-ring-shadow: 0 0 #0000; --tw-shadow: 0 0 #0000; --tw-shadow-colored: 0 0 #0000; --tw-blur: ; --tw-brightness: ; --tw-contrast: ; --tw-grayscale: ; --tw-hue-rotate: ; --tw-invert: ; --tw-saturate: ; --tw-sepia: ; --tw-drop-shadow: ; --tw-backdrop-blur: ; --tw-backdrop-brightness: ; --tw-backdrop-contrast: ; --tw-backdrop-grayscale: ; --tw-backdrop-hue-rotate: ; --tw-backdrop-invert: ; --tw-backdrop-opacity: ; --tw-backdrop-saturate: ; --tw-backdrop-sepia: ; display: inline-block; opacity: 1; transform: none;&quot; class=&quot;inline-block whitespace-pre&quot;&gt;l&lt;/span&gt;&lt;span style=&quot;box-sizing: border-box; border-width: 0px; border-style: solid; border-color: rgb(229, 231, 235); --tw-border-spacing-x: 0; --tw-border-spacing-y: 0; --tw-translate-x: 0; --tw-translate-y: 0; --tw-rotate: 0; --tw-skew-x: 0; --tw-skew-y: 0; --tw-scale-x: 1; --tw-scale-y: 1; --tw-pan-x: ; --tw-pan-y: ; --tw-pinch-zoom: ; --tw-scroll-snap-strictness: proximity; --tw-gradient-from-position: ; --tw-gradient-via-position: ; --tw-gradient-to-position: ; --tw-ordinal: ; --tw-slashed-zero: ; --tw-numeric-figure: ; --tw-numeric-spacing: ; --tw-numeric-fraction: ; --tw-ring-inset: ; --tw-ring-offset-width: 0px; --tw-ring-offset-color: #fff; --tw-ring-color: rgb(59 130 246 / .5); --tw-ring-offset-shadow: 0 0 #0000; --tw-ring-shadow: 0 0 #0000; --tw-shadow: 0 0 #0000; --tw-shadow-colored: 0 0 #0000; --tw-blur: ; --tw-brightness: ; --tw-contrast: ; --tw-grayscale: ; --tw-hue-rotate: ; --tw-invert: ; --tw-saturate: ; --tw-sepia: ; --tw-drop-shadow: ; --tw-backdrop-blur: ; --tw-backdrop-brightness: ; --tw-backdrop-contrast: ; --tw-backdrop-grayscale: ; --tw-backdrop-hue-rotate: ; --tw-backdrop-invert: ; --tw-backdrop-opacity: ; --tw-backdrop-saturate: ; --tw-backdrop-sepia: ; display: inline-block; opacity: 1; transform: none;&quot; class=&quot;inline-block whitespace-pre&quot;&gt;e&lt;/span&gt;&lt;span style=&quot;box-sizing: border-box; border-width: 0px; border-style: solid; border-color: rgb(229, 231, 235); --tw-border-spacing-x: 0; --tw-border-spacing-y: 0; --tw-translate-x: 0; --tw-translate-y: 0; --tw-rotate: 0; --tw-skew-x: 0; --tw-skew-y: 0; --tw-scale-x: 1; --tw-scale-y: 1; --tw-pan-x: ; --tw-pan-y: ; --tw-pinch-zoom: ; --tw-scroll-snap-strictness: proximity; --tw-gradient-from-position: ; --tw-gradient-via-position: ; --tw-gradient-to-position: ; --tw-ordinal: ; --tw-slashed-zero: ; --tw-numeric-figure: ; --tw-numeric-spacing: ; --tw-numeric-fraction: ; --tw-ring-inset: ; --tw-ring-offset-width: 0px; --tw-ring-offset-color: #fff; --tw-ring-color: rgb(59 130 246 / .5); --tw-ring-offset-shadow: 0 0 #0000; --tw-ring-shadow: 0 0 #0000; --tw-shadow: 0 0 #0000; --tw-shadow-colored: 0 0 #0000; --tw-blur: ; --tw-brightness: ; --tw-contrast: ; --tw-grayscale: ; --tw-hue-rotate: ; --tw-invert: ; --tw-saturate: ; --tw-sepia: ; --tw-drop-shadow: ; --tw-backdrop-blur: ; --tw-backdrop-brightness: ; --tw-backdrop-contrast: ; --tw-backdrop-grayscale: ; --tw-backdrop-hue-rotate: ; --tw-backdrop-invert: ; --tw-backdrop-opacity: ; --tw-backdrop-saturate: ; --tw-backdrop-sepia: ; display: inline-block; opacity: 1; transform: none;&quot; class=&quot;inline-block whitespace-pre&quot;&gt;m&amp;nbsp;&lt;/span&gt;&lt;span style=&quot;box-sizing: border-box; border-width: 0px; border-style: solid; border-color: rgb(229, 231, 235); --tw-border-spacing-x: 0; --tw-border-spacing-y: 0; --tw-translate-x: 0; --tw-translate-y: 0; --tw-rotate: 0; --tw-skew-x: 0; --tw-skew-y: 0; --tw-scale-x: 1; --tw-scale-y: 1; --tw-pan-x: ; --tw-pan-y: ; --tw-pinch-zoom: ; --tw-scroll-snap-strictness: proximity; --tw-gradient-from-position: ; --tw-gradient-via-position: ; --tw-gradient-to-position: ; --tw-ordinal: ; --tw-slashed-zero: ; --tw-numeric-figure: ; --tw-numeric-spacing: ; --tw-numeric-fraction: ; --tw-ring-inset: ; --tw-ring-offset-width: 0px; --tw-ring-offset-color: #fff; --tw-ring-color: rgb(59 130 246 / .5); --tw-ring-offset-shadow: 0 0 #0000; --tw-ring-shadow: 0 0 #0000; --tw-shadow: 0 0 #0000; --tw-shadow-colored: 0 0 #0000; --tw-blur: ; --tw-brightness: ; --tw-contrast: ; --tw-grayscale: ; --tw-hue-rotate: ; --tw-invert: ; --tw-saturate: ; --tw-sepia: ; --tw-drop-shadow: ; --tw-backdrop-blur: ; --tw-backdrop-brightness: ; --tw-backdrop-contrast: ; --tw-backdrop-grayscale: ; --tw-backdrop-hue-rotate: ; --tw-backdrop-invert: ; --tw-backdrop-opacity: ; --tw-backdrop-saturate: ; --tw-backdrop-sepia: ; display: inline-block; opacity: 1; transform: none;&quot; class=&quot;inline-block whitespace-pre&quot;&gt;&lt;/span&gt;&lt;span style=&quot;box-sizing: border-box; border-width: 0px; border-style: solid; border-color: rgb(229, 231, 235); --tw-border-spacing-x: 0; --tw-border-spacing-y: 0; --tw-translate-x: 0; --tw-translate-y: 0; --tw-rotate: 0; --tw-skew-x: 0; --tw-skew-y: 0; --tw-scale-x: 1; --tw-scale-y: 1; --tw-pan-x: ; --tw-pan-y: ; --tw-pinch-zoom: ; --tw-scroll-snap-strictness: proximity; --tw-gradient-from-position: ; --tw-gradient-via-position: ; --tw-gradient-to-position: ; --tw-ordinal: ; --tw-slashed-zero: ; --tw-numeric-figure: ; --tw-numeric-spacing: ; --tw-numeric-fraction: ; --tw-ring-inset: ; --tw-ring-offset-width: 0px; --tw-ring-offset-color: #fff; --tw-ring-color: rgb(59 130 246 / .5); --tw-ring-offset-shadow: 0 0 #0000; --tw-ring-shadow: 0 0 #0000; --tw-shadow: 0 0 #0000; --tw-shadow-colored: 0 0 #0000; --tw-blur: ; --tw-brightness: ; --tw-contrast: ; --tw-grayscale: ; --tw-hue-rotate: ; --tw-invert: ; --tw-saturate: ; --tw-sepia: ; --tw-drop-shadow: ; --tw-backdrop-blur: ; --tw-backdrop-brightness: ; --tw-backdrop-contrast: ; --tw-backdrop-grayscale: ; --tw-backdrop-hue-rotate: ; --tw-backdrop-invert: ; --tw-backdrop-opacity: ; --tw-backdrop-saturate: ; --tw-backdrop-sepia: ; display: inline-block; opacity: 1; transform: none;&quot; class=&quot;inline-block whitespace-pre&quot;&gt;s&lt;/span&gt;&lt;span style=&quot;box-sizing: border-box; border-width: 0px; border-style: solid; border-color: rgb(229, 231, 235); --tw-border-spacing-x: 0; --tw-border-spacing-y: 0; --tw-translate-x: 0; --tw-translate-y: 0; --tw-rotate: 0; --tw-skew-x: 0; --tw-skew-y: 0; --tw-scale-x: 1; --tw-scale-y: 1; --tw-pan-x: ; --tw-pan-y: ; --tw-pinch-zoom: ; --tw-scroll-snap-strictness: proximity; --tw-gradient-from-position: ; --tw-gradient-via-position: ; --tw-gradient-to-position: ; --tw-ordinal: ; --tw-slashed-zero: ; --tw-numeric-figure: ; --tw-numeric-spacing: ; --tw-numeric-fraction: ; --tw-ring-inset: ; --tw-ring-offset-width: 0px; --tw-ring-offset-color: #fff; --tw-ring-color: rgb(59 130 246 / .5); --tw-ring-offset-shadow: 0 0 #0000; --tw-ring-shadow: 0 0 #0000; --tw-shadow: 0 0 #0000; --tw-shadow-colored: 0 0 #0000; --tw-blur: ; --tw-brightness: ; --tw-contrast: ; --tw-grayscale: ; --tw-hue-rotate: ; --tw-invert: ; --tw-saturate: ; --tw-sepia: ; --tw-drop-shadow: ; --tw-backdrop-blur: ; --tw-backdrop-brightness: ; --tw-backdrop-contrast: ; --tw-backdrop-grayscale: ; --tw-backdrop-hue-rotate: ; --tw-backdrop-invert: ; --tw-backdrop-opacity: ; --tw-backdrop-saturate: ; --tw-backdrop-sepia: ; display: inline-block; opacity: 1; transform: none;&quot; class=&quot;inline-block whitespace-pre&quot;&gt;o&lt;/span&gt;&lt;span style=&quot;box-sizing: border-box; border-width: 0px; border-style: solid; border-color: rgb(229, 231, 235); --tw-border-spacing-x: 0; --tw-border-spacing-y: 0; --tw-translate-x: 0; --tw-translate-y: 0; --tw-rotate: 0; --tw-skew-x: 0; --tw-skew-y: 0; --tw-scale-x: 1; --tw-scale-y: 1; --tw-pan-x: ; --tw-pan-y: ; --tw-pinch-zoom: ; --tw-scroll-snap-strictness: proximity; --tw-gradient-from-position: ; --tw-gradient-via-position: ; --tw-gradient-to-position: ; --tw-ordinal: ; --tw-slashed-zero: ; --tw-numeric-figure: ; --tw-numeric-spacing: ; --tw-numeric-fraction: ; --tw-ring-inset: ; --tw-ring-offset-width: 0px; --tw-ring-offset-color: #fff; --tw-ring-color: rgb(59 130 246 / .5); --tw-ring-offset-shadow: 0 0 #0000; --tw-ring-shadow: 0 0 #0000; --tw-shadow: 0 0 #0000; --tw-shadow-colored: 0 0 #0000; --tw-blur: ; --tw-brightness: ; --tw-contrast: ; --tw-grayscale: ; --tw-hue-rotate: ; --tw-invert: ; --tw-saturate: ; --tw-sepia: ; --tw-drop-shadow: ; --tw-backdrop-blur: ; --tw-backdrop-brightness: ; --tw-backdrop-contrast: ; --tw-backdrop-grayscale: ; --tw-backdrop-hue-rotate: ; --tw-backdrop-invert: ; --tw-backdrop-opacity: ; --tw-backdrop-saturate: ; --tw-backdrop-sepia: ; display: inline-block; opacity: 1; transform: none;&quot; class=&quot;inline-block whitespace-pre&quot;&gt;l&lt;/span&gt;&lt;span style=&quot;box-sizing: border-box; border-width: 0px; border-style: solid; border-color: rgb(229, 231, 235); --tw-border-spacing-x: 0; --tw-border-spacing-y: 0; --tw-translate-x: 0; --tw-translate-y: 0; --tw-rotate: 0; --tw-skew-x: 0; --tw-skew-y: 0; --tw-scale-x: 1; --tw-scale-y: 1; --tw-pan-x: ; --tw-pan-y: ; --tw-pinch-zoom: ; --tw-scroll-snap-strictness: proximity; --tw-gradient-from-position: ; --tw-gradient-via-position: ; --tw-gradient-to-position: ; --tw-ordinal: ; --tw-slashed-zero: ; --tw-numeric-figure: ; --tw-numeric-spacing: ; --tw-numeric-fraction: ; --tw-ring-inset: ; --tw-ring-offset-width: 0px; --tw-ring-offset-color: #fff; --tw-ring-color: rgb(59 130 246 / .5); --tw-ring-offset-shadow: 0 0 #0000; --tw-ring-shadow: 0 0 #0000; --tw-shadow: 0 0 #0000; --tw-shadow-colored: 0 0 #0000; --tw-blur: ; --tw-brightness: ; --tw-contrast: ; --tw-grayscale: ; --tw-hue-rotate: ; --tw-invert: ; --tw-saturate: ; --tw-sepia: ; --tw-drop-shadow: ; --tw-backdrop-blur: ; --tw-backdrop-brightness: ; --tw-backdrop-contrast: ; --tw-backdrop-grayscale: ; --tw-backdrop-hue-rotate: ; --tw-backdrop-invert: ; --tw-backdrop-opacity: ; --tw-backdrop-saturate: ; --tw-backdrop-sepia: ; display: inline-block; opacity: 1; transform: none;&quot; class=&quot;inline-block whitespace-pre&quot;&gt;v&lt;/span&gt;&lt;span style=&quot;box-sizing: border-box; border-width: 0px; border-style: solid; border-color: rgb(229, 231, 235); --tw-border-spacing-x: 0; --tw-border-spacing-y: 0; --tw-translate-x: 0; --tw-translate-y: 0; --tw-rotate: 0; --tw-skew-x: 0; --tw-skew-y: 0; --tw-scale-x: 1; --tw-scale-y: 1; --tw-pan-x: ; --tw-pan-y: ; --tw-pinch-zoom: ; --tw-scroll-snap-strictness: proximity; --tw-gradient-from-position: ; --tw-gradient-via-position: ; --tw-gradient-to-position: ; --tw-ordinal: ; --tw-slashed-zero: ; --tw-numeric-figure: ; --tw-numeric-spacing: ; --tw-numeric-fraction: ; --tw-ring-inset: ; --tw-ring-offset-width: 0px; --tw-ring-offset-color: #fff; --tw-ring-color: rgb(59 130 246 / .5); --tw-ring-offset-shadow: 0 0 #0000; --tw-ring-shadow: 0 0 #0000; --tw-shadow: 0 0 #0000; --tw-shadow-colored: 0 0 #0000; --tw-blur: ; --tw-brightness: ; --tw-contrast: ; --tw-grayscale: ; --tw-hue-rotate: ; --tw-invert: ; --tw-saturate: ; --tw-sepia: ; --tw-drop-shadow: ; --tw-backdrop-blur: ; --tw-backdrop-brightness: ; --tw-backdrop-contrast: ; --tw-backdrop-grayscale: ; --tw-backdrop-hue-rotate: ; --tw-backdrop-invert: ; --tw-backdrop-opacity: ; --tw-backdrop-saturate: ; --tw-backdrop-sepia: ; display: inline-block; opacity: 1; transform: none;&quot; class=&quot;inline-block whitespace-pre&quot;&gt;e&lt;/span&gt;&lt;span style=&quot;box-sizing: border-box; border-width: 0px; border-style: solid; border-color: rgb(229, 231, 235); --tw-border-spacing-x: 0; --tw-border-spacing-y: 0; --tw-translate-x: 0; --tw-translate-y: 0; --tw-rotate: 0; --tw-skew-x: 0; --tw-skew-y: 0; --tw-scale-x: 1; --tw-scale-y: 1; --tw-pan-x: ; --tw-pan-y: ; --tw-pinch-zoom: ; --tw-scroll-snap-strictness: proximity; --tw-gradient-from-position: ; --tw-gradient-via-position: ; --tw-gradient-to-position: ; --tw-ordinal: ; --tw-slashed-zero: ; --tw-numeric-figure: ; --tw-numeric-spacing: ; --tw-numeric-fraction: ; --tw-ring-inset: ; --tw-ring-offset-width: 0px; --tw-ring-offset-color: #fff; --tw-ring-color: rgb(59 130 246 / .5); --tw-ring-offset-shadow: 0 0 #0000; --tw-ring-shadow: 0 0 #0000; --tw-shadow: 0 0 #0000; --tw-shadow-colored: 0 0 #0000; --tw-blur: ; --tw-brightness: ; --tw-contrast: ; --tw-grayscale: ; --tw-hue-rotate: ; --tw-invert: ; --tw-saturate: ; --tw-sepia: ; --tw-drop-shadow: ; --tw-backdrop-blur: ; --tw-backdrop-brightness: ; --tw-backdrop-contrast: ; --tw-backdrop-grayscale: ; --tw-backdrop-hue-rotate: ; --tw-backdrop-invert: ; --tw-backdrop-opacity: ; --tw-backdrop-saturate: ; --tw-backdrop-sepia: ; display: inline-block; opacity: 1; transform: none;&quot; class=&quot;inline-block whitespace-pre&quot;&gt;r&lt;/span&gt;&lt;/h2&gt;&lt;/div&gt;&lt;p style=&quot;&quot;&gt;&lt;font style=&quot;font-size: 17px;&quot;&gt;Lorem ipsum dolor sit amet, consectetur adipisicing elit, sed do eiusmod tempor incididunt ut labore et dolore magna aliqua.&lt;/font&gt;&lt;/p&gt;" style="text;html=1;strokeColor=none;fillColor=none;spacing=5;spacingTop=-20;whiteSpace=wrap;overflow=hidden;rounded=0;fontSize=13;" vertex="1" parent="WTdOhSceAi6wrpTnlXMO-1">
          <mxGeometry x="380" y="450" width="320" height="230" as="geometry" />
        </mxCell>
        <mxCell id="WTdOhSceAi6wrpTnlXMO-34" value="&lt;b&gt;&lt;font style=&quot;font-size: 20px;&quot;&gt;Projects&lt;/font&gt;&lt;/b&gt;" style="text;html=1;strokeColor=none;fillColor=none;align=center;verticalAlign=middle;whiteSpace=wrap;rounded=0;" vertex="1" parent="WTdOhSceAi6wrpTnlXMO-1">
          <mxGeometry x="265" y="1270" width="60" height="30" as="geometry" />
        </mxCell>
        <mxCell id="WTdOhSceAi6wrpTnlXMO-36" value="&lt;h2 style=&quot;box-sizing: border-box; border-width: 0px; border-style: solid; border-color: rgb(229, 231, 235); --tw-border-spacing-x: 0; --tw-border-spacing-y: 0; --tw-translate-x: 0; --tw-translate-y: 0; --tw-rotate: 0; --tw-skew-x: 0; --tw-skew-y: 0; --tw-scale-x: 1; --tw-scale-y: 1; --tw-pan-x: ; --tw-pan-y: ; --tw-pinch-zoom: ; --tw-scroll-snap-strictness: proximity; --tw-gradient-from-position: ; --tw-gradient-via-position: ; --tw-gradient-to-position: ; --tw-ordinal: ; --tw-slashed-zero: ; --tw-numeric-figure: ; --tw-numeric-spacing: ; --tw-numeric-fraction: ; --tw-ring-inset: ; --tw-ring-offset-width: 0px; --tw-ring-offset-color: #fff; --tw-ring-color: rgb(59 130 246 / .5); --tw-ring-offset-shadow: 0 0 #0000; --tw-ring-shadow: 0 0 #0000; --tw-shadow: 0 0 #0000; --tw-shadow-colored: 0 0 #0000; --tw-blur: ; --tw-brightness: ; --tw-contrast: ; --tw-grayscale: ; --tw-hue-rotate: ; --tw-invert: ; --tw-saturate: ; --tw-sepia: ; --tw-drop-shadow: ; --tw-backdrop-blur: ; --tw-backdrop-brightness: ; --tw-backdrop-contrast: ; --tw-backdrop-grayscale: ; --tw-backdrop-hue-rotate: ; --tw-backdrop-invert: ; --tw-backdrop-opacity: ; --tw-backdrop-saturate: ; --tw-backdrop-sepia: ; font-size: 3rem; margin: 0px 0px 1rem; line-height: 1; --tw-text-opacity: 1; color: rgb(255, 254, 249); font-family: Inter, ui-sans-serif, system-ui, -apple-system, BlinkMacSystemFont, &amp;quot;Segoe UI&amp;quot;, Roboto, &amp;quot;Helvetica Neue&amp;quot;, Arial, &amp;quot;Noto Sans&amp;quot;, sans-serif, &amp;quot;Apple Color Emoji&amp;quot;, &amp;quot;Segoe UI Emoji&amp;quot;, &amp;quot;Segoe UI Symbol&amp;quot;, &amp;quot;Noto Color Emoji&amp;quot;;&quot; class=&quot;text-neutrals-50 font-bold leading-tight mb-4 md:text-5xl text-3xl&quot;&gt;Dig into my universe&lt;/h2&gt;" style="text;html=1;strokeColor=none;fillColor=none;align=center;verticalAlign=middle;whiteSpace=wrap;rounded=0;fontSize=28;" vertex="1" parent="WTdOhSceAi6wrpTnlXMO-1">
          <mxGeometry x="190" y="1340" width="590" height="30" as="geometry" />
        </mxCell>
        <mxCell id="WTdOhSceAi6wrpTnlXMO-37" value="JAva" style="strokeWidth=1;shadow=0;dashed=0;align=center;html=1;shape=mxgraph.mockup.forms.comboBox;strokeColor=#999999;fillColor=none;align=left;fillColor2=none;mainText=;fontColor=#666666;fontSize=17;spacingLeft=3;labelBackgroundColor=none;" vertex="1" parent="WTdOhSceAi6wrpTnlXMO-1">
          <mxGeometry x="294" y="840" width="150" height="30" as="geometry" />
        </mxCell>
        <mxCell id="WTdOhSceAi6wrpTnlXMO-39" value="" style="whiteSpace=wrap;html=1;aspect=fixed;labelBackgroundColor=none;fontSize=28;fillColor=none;" vertex="1" parent="WTdOhSceAi6wrpTnlXMO-1">
          <mxGeometry x="120" y="930" width="160" height="160" as="geometry" />
        </mxCell>
        <mxCell id="WTdOhSceAi6wrpTnlXMO-40" value="" style="whiteSpace=wrap;html=1;aspect=fixed;labelBackgroundColor=none;fontSize=28;fillColor=none;" vertex="1" parent="WTdOhSceAi6wrpTnlXMO-1">
          <mxGeometry x="300" y="930" width="160" height="160" as="geometry" />
        </mxCell>
        <mxCell id="WTdOhSceAi6wrpTnlXMO-41" value="" style="whiteSpace=wrap;html=1;aspect=fixed;labelBackgroundColor=none;fontSize=28;fillColor=none;" vertex="1" parent="WTdOhSceAi6wrpTnlXMO-1">
          <mxGeometry x="480" y="930" width="160" height="160" as="geometry" />
        </mxCell>
        <mxCell id="WTdOhSceAi6wrpTnlXMO-42" value="" style="triangle;whiteSpace=wrap;html=1;labelBackgroundColor=none;fontSize=28;fillColor=none;" vertex="1" parent="WTdOhSceAi6wrpTnlXMO-1">
          <mxGeometry x="715" y="990" width="20" height="30" as="geometry" />
        </mxCell>
        <mxCell id="WTdOhSceAi6wrpTnlXMO-63" value="" style="triangle;whiteSpace=wrap;html=1;labelBackgroundColor=none;fontSize=28;fillColor=none;direction=west;" vertex="1" parent="WTdOhSceAi6wrpTnlXMO-1">
          <mxGeometry x="35" y="995" width="20" height="30" as="geometry" />
        </mxCell>
        <mxCell id="WTdOhSceAi6wrpTnlXMO-65" value="" style="whiteSpace=wrap;html=1;aspect=fixed;labelBackgroundColor=none;fontSize=28;fillColor=none;" vertex="1" parent="WTdOhSceAi6wrpTnlXMO-1">
          <mxGeometry x="50" y="1260" width="160" height="160" as="geometry" />
        </mxCell>
        <mxCell id="WTdOhSceAi6wrpTnlXMO-66" value="" style="whiteSpace=wrap;html=1;aspect=fixed;labelBackgroundColor=none;fontSize=28;fillColor=none;" vertex="1" parent="WTdOhSceAi6wrpTnlXMO-1">
          <mxGeometry x="160" y="1390" width="160" height="160" as="geometry" />
        </mxCell>
        <mxCell id="WTdOhSceAi6wrpTnlXMO-67" value="" style="whiteSpace=wrap;html=1;aspect=fixed;labelBackgroundColor=none;fontSize=28;fillColor=none;" vertex="1" parent="WTdOhSceAi6wrpTnlXMO-1">
          <mxGeometry x="35" y="1510" width="160" height="160" as="geometry" />
        </mxCell>
        <mxCell id="WTdOhSceAi6wrpTnlXMO-71" value="&lt;h1&gt;&lt;br&gt;&lt;/h1&gt;&lt;p&gt;&lt;font style=&quot;font-size: 19px;&quot;&gt;Lorem ipsum dolor sit amet, consectetur adipisicing elit, sed do eiusmod tempor incididunt ut labore et dolore magna aliqua.&lt;/font&gt;&lt;/p&gt;" style="text;html=1;strokeColor=none;fillColor=none;spacing=5;spacingTop=-20;whiteSpace=wrap;overflow=hidden;rounded=0;fontSize=28;" vertex="1" parent="WTdOhSceAi6wrpTnlXMO-1">
          <mxGeometry x="345" y="1260" width="370" height="350" as="geometry" />
        </mxCell>
        <mxCell id="WTdOhSceAi6wrpTnlXMO-72" value="&lt;b&gt;&lt;font style=&quot;font-size: 20px;&quot;&gt;Skills&lt;/font&gt;&lt;/b&gt;" style="text;html=1;strokeColor=none;fillColor=none;align=center;verticalAlign=middle;whiteSpace=wrap;rounded=0;" vertex="1" parent="WTdOhSceAi6wrpTnlXMO-1">
          <mxGeometry x="335" y="730" width="60" height="30" as="geometry" />
        </mxCell>
        <mxCell id="WTdOhSceAi6wrpTnlXMO-76" value="&lt;h2 style=&quot;box-sizing: border-box; border-width: 0px; border-style: solid; border-color: rgb(229, 231, 235); --tw-border-spacing-x: 0; --tw-border-spacing-y: 0; --tw-translate-x: 0; --tw-translate-y: 0; --tw-rotate: 0; --tw-skew-x: 0; --tw-skew-y: 0; --tw-scale-x: 1; --tw-scale-y: 1; --tw-pan-x: ; --tw-pan-y: ; --tw-pinch-zoom: ; --tw-scroll-snap-strictness: proximity; --tw-gradient-from-position: ; --tw-gradient-via-position: ; --tw-gradient-to-position: ; --tw-ordinal: ; --tw-slashed-zero: ; --tw-numeric-figure: ; --tw-numeric-spacing: ; --tw-numeric-fraction: ; --tw-ring-inset: ; --tw-ring-offset-width: 0px; --tw-ring-offset-color: #fff; --tw-ring-color: rgb(59 130 246 / .5); --tw-ring-offset-shadow: 0 0 #0000; --tw-ring-shadow: 0 0 #0000; --tw-shadow: 0 0 #0000; --tw-shadow-colored: 0 0 #0000; --tw-blur: ; --tw-brightness: ; --tw-contrast: ; --tw-grayscale: ; --tw-hue-rotate: ; --tw-invert: ; --tw-saturate: ; --tw-sepia: ; --tw-drop-shadow: ; --tw-backdrop-blur: ; --tw-backdrop-brightness: ; --tw-backdrop-contrast: ; --tw-backdrop-grayscale: ; --tw-backdrop-hue-rotate: ; --tw-backdrop-invert: ; --tw-backdrop-opacity: ; --tw-backdrop-saturate: ; --tw-backdrop-sepia: ; font-size: 3rem; margin: 0px 0px 1rem; line-height: 1; --tw-text-opacity: 1; color: rgb(255, 254, 249); font-family: Inter, ui-sans-serif, system-ui, -apple-system, BlinkMacSystemFont, &amp;quot;Segoe UI&amp;quot;, Roboto, &amp;quot;Helvetica Neue&amp;quot;, Arial, &amp;quot;Noto Sans&amp;quot;, sans-serif, &amp;quot;Apple Color Emoji&amp;quot;, &amp;quot;Segoe UI Emoji&amp;quot;, &amp;quot;Segoe UI Symbol&amp;quot;, &amp;quot;Noto Color Emoji&amp;quot;;&quot; class=&quot;text-neutrals-50 font-bold leading-tight mb-4 md:text-5xl text-3xl&quot;&gt;Delve into my coding cosmos.&lt;br&gt;&lt;/h2&gt;" style="text;html=1;strokeColor=none;fillColor=none;align=center;verticalAlign=middle;whiteSpace=wrap;rounded=0;fontSize=28;" vertex="1" parent="WTdOhSceAi6wrpTnlXMO-1">
          <mxGeometry x="30" y="780" width="700" height="30" as="geometry" />
        </mxCell>
        <mxCell id="WTdOhSceAi6wrpTnlXMO-77" value="CONTACT" style="text;html=1;strokeColor=none;fillColor=none;align=center;verticalAlign=middle;whiteSpace=wrap;rounded=0;fontSize=19;" vertex="1" parent="WTdOhSceAi6wrpTnlXMO-1">
          <mxGeometry x="70" y="1820" width="60" height="30" as="geometry" />
        </mxCell>
        <mxCell id="WTdOhSceAi6wrpTnlXMO-78" value="&lt;h2 style=&quot;box-sizing: border-box; border-width: 0px; border-style: solid; border-color: rgb(229, 231, 235); --tw-border-spacing-x: 0; --tw-border-spacing-y: 0; --tw-translate-x: 0; --tw-translate-y: 0; --tw-rotate: 0; --tw-skew-x: 0; --tw-skew-y: 0; --tw-scale-x: 1; --tw-scale-y: 1; --tw-pan-x: ; --tw-pan-y: ; --tw-pinch-zoom: ; --tw-scroll-snap-strictness: proximity; --tw-gradient-from-position: ; --tw-gradient-via-position: ; --tw-gradient-to-position: ; --tw-ordinal: ; --tw-slashed-zero: ; --tw-numeric-figure: ; --tw-numeric-spacing: ; --tw-numeric-fraction: ; --tw-ring-inset: ; --tw-ring-offset-width: 0px; --tw-ring-offset-color: #fff; --tw-ring-color: rgb(59 130 246 / .5); --tw-ring-offset-shadow: 0 0 #0000; --tw-ring-shadow: 0 0 #0000; --tw-shadow: 0 0 #0000; --tw-shadow-colored: 0 0 #0000; --tw-blur: ; --tw-brightness: ; --tw-contrast: ; --tw-grayscale: ; --tw-hue-rotate: ; --tw-invert: ; --tw-saturate: ; --tw-sepia: ; --tw-drop-shadow: ; --tw-backdrop-blur: ; --tw-backdrop-brightness: ; --tw-backdrop-contrast: ; --tw-backdrop-grayscale: ; --tw-backdrop-hue-rotate: ; --tw-backdrop-invert: ; --tw-backdrop-opacity: ; --tw-backdrop-saturate: ; --tw-backdrop-sepia: ; margin: 0px 0px 1rem; line-height: 1; --tw-text-opacity: 1; color: rgb(255, 254, 249); font-family: Inter, ui-sans-serif, system-ui, -apple-system, BlinkMacSystemFont, &amp;quot;Segoe UI&amp;quot;, Roboto, &amp;quot;Helvetica Neue&amp;quot;, Arial, &amp;quot;Noto Sans&amp;quot;, sans-serif, &amp;quot;Apple Color Emoji&amp;quot;, &amp;quot;Segoe UI Emoji&amp;quot;, &amp;quot;Segoe UI Symbol&amp;quot;, &amp;quot;Noto Color Emoji&amp;quot;; text-align: start; font-size: 31px;&quot; class=&quot;text-neutrals-50 font-bold leading-tight mb-4 md:text-5xl text-3xl&quot;&gt;&lt;font style=&quot;font-size: 31px;&quot;&gt;Got a problem to solve?&lt;/font&gt;&lt;/h2&gt;&lt;div style=&quot;font-size: 31px;&quot;&gt;&lt;br&gt;&lt;/div&gt;" style="text;html=1;strokeColor=none;fillColor=none;align=center;verticalAlign=middle;whiteSpace=wrap;rounded=0;fontSize=28;" vertex="1" parent="WTdOhSceAi6wrpTnlXMO-1">
          <mxGeometry x="10" y="1880" width="380" height="30" as="geometry" />
        </mxCell>
        <mxCell id="WTdOhSceAi6wrpTnlXMO-79" value="&lt;h1 style=&quot;font-size: 15px;&quot;&gt;&lt;font color=&quot;#949494&quot; style=&quot;font-size: 15px;&quot;&gt;&lt;br&gt;&lt;/font&gt;&lt;/h1&gt;&lt;p style=&quot;font-size: 15px;&quot;&gt;&lt;font color=&quot;#949494&quot; style=&quot;font-size: 15px;&quot;&gt;Get your space suit ready and tell me your ideas to develop your dream website.&lt;/font&gt;&lt;br&gt;&lt;/p&gt;" style="text;html=1;strokeColor=none;fillColor=none;spacing=5;spacingTop=-20;whiteSpace=wrap;overflow=hidden;rounded=0;fontSize=28;" vertex="1" parent="WTdOhSceAi6wrpTnlXMO-1">
          <mxGeometry x="25" y="1860" width="370" height="120" as="geometry" />
        </mxCell>
        <mxCell id="WTdOhSceAi6wrpTnlXMO-80" value="" style="verticalLabelPosition=bottom;shadow=0;dashed=0;align=center;html=1;verticalAlign=top;strokeWidth=1;shape=mxgraph.mockup.misc.mail2;strokeColor=#999999;labelBackgroundColor=#6666FF;fontSize=15;fontColor=#949494;fillColor=none;" vertex="1" parent="WTdOhSceAi6wrpTnlXMO-1">
          <mxGeometry x="30" y="1960" width="30" height="20" as="geometry" />
        </mxCell>
        <mxCell id="WTdOhSceAi6wrpTnlXMO-81" value="&lt;h2 style=&quot;box-sizing: border-box; border-width: 0px; border-style: solid; border-color: rgb(229, 231, 235); --tw-border-spacing-x: 0; --tw-border-spacing-y: 0; --tw-translate-x: 0; --tw-translate-y: 0; --tw-rotate: 0; --tw-skew-x: 0; --tw-skew-y: 0; --tw-scale-x: 1; --tw-scale-y: 1; --tw-pan-x: ; --tw-pan-y: ; --tw-pinch-zoom: ; --tw-scroll-snap-strictness: proximity; --tw-gradient-from-position: ; --tw-gradient-via-position: ; --tw-gradient-to-position: ; --tw-ordinal: ; --tw-slashed-zero: ; --tw-numeric-figure: ; --tw-numeric-spacing: ; --tw-numeric-fraction: ; --tw-ring-inset: ; --tw-ring-offset-width: 0px; --tw-ring-offset-color: #fff; --tw-ring-color: rgb(59 130 246 / .5); --tw-ring-offset-shadow: 0 0 #0000; --tw-ring-shadow: 0 0 #0000; --tw-shadow: 0 0 #0000; --tw-shadow-colored: 0 0 #0000; --tw-blur: ; --tw-brightness: ; --tw-contrast: ; --tw-grayscale: ; --tw-hue-rotate: ; --tw-invert: ; --tw-saturate: ; --tw-sepia: ; --tw-drop-shadow: ; --tw-backdrop-blur: ; --tw-backdrop-brightness: ; --tw-backdrop-contrast: ; --tw-backdrop-grayscale: ; --tw-backdrop-hue-rotate: ; --tw-backdrop-invert: ; --tw-backdrop-opacity: ; --tw-backdrop-saturate: ; --tw-backdrop-sepia: ; font-size: 19px; margin: 0px 0px 1rem; line-height: 1; --tw-text-opacity: 1; color: rgb(255, 254, 249); font-family: Inter, ui-sans-serif, system-ui, -apple-system, BlinkMacSystemFont, &amp;quot;Segoe UI&amp;quot;, Roboto, &amp;quot;Helvetica Neue&amp;quot;, Arial, &amp;quot;Noto Sans&amp;quot;, sans-serif, &amp;quot;Apple Color Emoji&amp;quot;, &amp;quot;Segoe UI Emoji&amp;quot;, &amp;quot;Segoe UI Symbol&amp;quot;, &amp;quot;Noto Color Emoji&amp;quot;;&quot; class=&quot;text-neutrals-50 font-bold leading-tight mb-4 md:text-5xl text-3xl&quot;&gt;&lt;span style=&quot;font-weight: normal;&quot;&gt;hajarahabibi016@gmail.com&lt;/span&gt;&lt;/h2&gt;" style="text;html=1;strokeColor=none;fillColor=none;align=center;verticalAlign=middle;whiteSpace=wrap;rounded=0;fontSize=19;" vertex="1" parent="WTdOhSceAi6wrpTnlXMO-1">
          <mxGeometry x="93" y="1960" width="187.5" height="30" as="geometry" />
        </mxCell>
        <mxCell id="WTdOhSceAi6wrpTnlXMO-82" value="Name" style="text;html=1;strokeColor=none;fillColor=none;align=center;verticalAlign=middle;whiteSpace=wrap;rounded=0;fontSize=19;fontColor=#949494;" vertex="1" parent="WTdOhSceAi6wrpTnlXMO-1">
          <mxGeometry x="480" y="1740" width="60" height="30" as="geometry" />
        </mxCell>
        <mxCell id="WTdOhSceAi6wrpTnlXMO-83" value="" style="rounded=1;whiteSpace=wrap;html=1;labelBackgroundColor=#6666FF;fontSize=19;fontColor=#949494;fillColor=none;" vertex="1" parent="WTdOhSceAi6wrpTnlXMO-1">
          <mxGeometry x="470" y="1780" width="310" height="40" as="geometry" />
        </mxCell>
        <mxCell id="WTdOhSceAi6wrpTnlXMO-84" value="Email" style="text;html=1;strokeColor=none;fillColor=none;align=center;verticalAlign=middle;whiteSpace=wrap;rounded=0;fontSize=19;fontColor=#949494;" vertex="1" parent="WTdOhSceAi6wrpTnlXMO-1">
          <mxGeometry x="478" y="1842" width="60" height="30" as="geometry" />
        </mxCell>
        <mxCell id="WTdOhSceAi6wrpTnlXMO-85" value="" style="rounded=1;whiteSpace=wrap;html=1;labelBackgroundColor=#6666FF;fontSize=19;fontColor=#949494;fillColor=none;" vertex="1" parent="WTdOhSceAi6wrpTnlXMO-1">
          <mxGeometry x="470" y="1884" width="310" height="40" as="geometry" />
        </mxCell>
        <mxCell id="WTdOhSceAi6wrpTnlXMO-86" value="Message" style="text;html=1;strokeColor=none;fillColor=none;align=center;verticalAlign=middle;whiteSpace=wrap;rounded=0;fontSize=19;fontColor=#949494;" vertex="1" parent="WTdOhSceAi6wrpTnlXMO-1">
          <mxGeometry x="480" y="1951" width="60" height="30" as="geometry" />
        </mxCell>
        <mxCell id="WTdOhSceAi6wrpTnlXMO-87" value="" style="rounded=1;whiteSpace=wrap;html=1;labelBackgroundColor=#6666FF;fontSize=19;fontColor=#949494;fillColor=none;" vertex="1" parent="WTdOhSceAi6wrpTnlXMO-1">
          <mxGeometry x="469" y="1992" width="310" height="110" as="geometry" />
        </mxCell>
        <mxCell id="WTdOhSceAi6wrpTnlXMO-88" value="Hit me up" style="strokeWidth=1;shadow=0;dashed=0;align=center;html=1;shape=mxgraph.mockup.buttons.button;strokeColor=#666666;fontColor=#ffffff;mainText=;buttonStyle=round;fontSize=17;fontStyle=1;fillColor=none;whiteSpace=wrap;labelBackgroundColor=none;" vertex="1" parent="WTdOhSceAi6wrpTnlXMO-1">
          <mxGeometry x="460" y="2120" width="330" height="30" as="geometry" />
        </mxCell>
        <mxCell id="WTdOhSceAi6wrpTnlXMO-138" value="&lt;h2 style=&quot;box-sizing: border-box; border-width: 0px; border-style: solid; border-color: rgb(229, 231, 235); --tw-border-spacing-x: 0; --tw-border-spacing-y: 0; --tw-translate-x: 0; --tw-translate-y: 0; --tw-rotate: 0; --tw-skew-x: 0; --tw-skew-y: 0; --tw-scale-x: 1; --tw-scale-y: 1; --tw-pan-x: ; --tw-pan-y: ; --tw-pinch-zoom: ; --tw-scroll-snap-strictness: proximity; --tw-gradient-from-position: ; --tw-gradient-via-position: ; --tw-gradient-to-position: ; --tw-ordinal: ; --tw-slashed-zero: ; --tw-numeric-figure: ; --tw-numeric-spacing: ; --tw-numeric-fraction: ; --tw-ring-inset: ; --tw-ring-offset-width: 0px; --tw-ring-offset-color: #fff; --tw-ring-color: rgb(59 130 246 / .5); --tw-ring-offset-shadow: 0 0 #0000; --tw-ring-shadow: 0 0 #0000; --tw-shadow: 0 0 #0000; --tw-shadow-colored: 0 0 #0000; --tw-blur: ; --tw-brightness: ; --tw-contrast: ; --tw-grayscale: ; --tw-hue-rotate: ; --tw-invert: ; --tw-saturate: ; --tw-sepia: ; --tw-drop-shadow: ; --tw-backdrop-blur: ; --tw-backdrop-brightness: ; --tw-backdrop-contrast: ; --tw-backdrop-grayscale: ; --tw-backdrop-hue-rotate: ; --tw-backdrop-invert: ; --tw-backdrop-opacity: ; --tw-backdrop-saturate: ; --tw-backdrop-sepia: ; font-size: 19px; margin: 0px 0px 1rem; line-height: 1; --tw-text-opacity: 1; color: rgb(255, 254, 249); font-family: Inter, ui-sans-serif, system-ui, -apple-system, BlinkMacSystemFont, &amp;quot;Segoe UI&amp;quot;, Roboto, &amp;quot;Helvetica Neue&amp;quot;, Arial, &amp;quot;Noto Sans&amp;quot;, sans-serif, &amp;quot;Apple Color Emoji&amp;quot;, &amp;quot;Segoe UI Emoji&amp;quot;, &amp;quot;Segoe UI Symbol&amp;quot;, &amp;quot;Noto Color Emoji&amp;quot;;&quot; class=&quot;text-neutrals-50 font-bold leading-tight mb-4 md:text-5xl text-3xl&quot;&gt;&lt;span style=&quot;font-weight: normal;&quot;&gt;Copyright 2023&lt;/span&gt;&lt;/h2&gt;" style="text;html=1;strokeColor=none;fillColor=none;align=center;verticalAlign=middle;whiteSpace=wrap;rounded=0;fontSize=19;" vertex="1" parent="WTdOhSceAi6wrpTnlXMO-1">
          <mxGeometry y="2380" width="150" height="30" as="geometry" />
        </mxCell>
        <mxCell id="WTdOhSceAi6wrpTnlXMO-139" value="" style="verticalLabelPosition=bottom;html=1;verticalAlign=top;align=center;strokeColor=none;fillColor=#00BEF2;shape=mxgraph.azure.github_code;pointerEvents=1;labelBackgroundColor=none;fontSize=19;fontColor=#949494;" vertex="1" parent="WTdOhSceAi6wrpTnlXMO-1">
          <mxGeometry x="325" y="2370" width="30" height="30" as="geometry" />
        </mxCell>
        <mxCell id="WTdOhSceAi6wrpTnlXMO-140" value="" style="dashed=0;outlineConnect=0;html=1;align=center;labelPosition=center;verticalLabelPosition=bottom;verticalAlign=top;shape=mxgraph.weblogos.linkedin;fillColor=#0095DB;gradientColor=#006391;labelBackgroundColor=none;fontSize=19;fontColor=#949494;" vertex="1" parent="WTdOhSceAi6wrpTnlXMO-1">
          <mxGeometry x="371" y="2370" width="24" height="30" as="geometry" />
        </mxCell>
        <mxCell id="WTdOhSceAi6wrpTnlXMO-141" value="" style="dashed=0;outlineConnect=0;html=1;align=center;labelPosition=center;verticalLabelPosition=bottom;verticalAlign=top;shape=mxgraph.weblogos.twitter;fillColor=#1DA1F2;strokeColor=none;labelBackgroundColor=none;fontSize=19;fontColor=#949494;" vertex="1" parent="WTdOhSceAi6wrpTnlXMO-1">
          <mxGeometry x="414" y="2370" width="30" height="30" as="geometry" />
        </mxCell>
        <mxCell id="WTdOhSceAi6wrpTnlXMO-142" value="&lt;h2 style=&quot;box-sizing: border-box; border-width: 0px; border-style: solid; border-color: rgb(229, 231, 235); --tw-border-spacing-x: 0; --tw-border-spacing-y: 0; --tw-translate-x: 0; --tw-translate-y: 0; --tw-rotate: 0; --tw-skew-x: 0; --tw-skew-y: 0; --tw-scale-x: 1; --tw-scale-y: 1; --tw-pan-x: ; --tw-pan-y: ; --tw-pinch-zoom: ; --tw-scroll-snap-strictness: proximity; --tw-gradient-from-position: ; --tw-gradient-via-position: ; --tw-gradient-to-position: ; --tw-ordinal: ; --tw-slashed-zero: ; --tw-numeric-figure: ; --tw-numeric-spacing: ; --tw-numeric-fraction: ; --tw-ring-inset: ; --tw-ring-offset-width: 0px; --tw-ring-offset-color: #fff; --tw-ring-color: rgb(59 130 246 / .5); --tw-ring-offset-shadow: 0 0 #0000; --tw-ring-shadow: 0 0 #0000; --tw-shadow: 0 0 #0000; --tw-shadow-colored: 0 0 #0000; --tw-blur: ; --tw-brightness: ; --tw-contrast: ; --tw-grayscale: ; --tw-hue-rotate: ; --tw-invert: ; --tw-saturate: ; --tw-sepia: ; --tw-drop-shadow: ; --tw-backdrop-blur: ; --tw-backdrop-brightness: ; --tw-backdrop-contrast: ; --tw-backdrop-grayscale: ; --tw-backdrop-hue-rotate: ; --tw-backdrop-invert: ; --tw-backdrop-opacity: ; --tw-backdrop-saturate: ; --tw-backdrop-sepia: ; font-size: 19px; margin: 0px 0px 1rem; line-height: 1; --tw-text-opacity: 1; color: rgb(255, 254, 249); font-family: Inter, ui-sans-serif, system-ui, -apple-system, BlinkMacSystemFont, &amp;quot;Segoe UI&amp;quot;, Roboto, &amp;quot;Helvetica Neue&amp;quot;, Arial, &amp;quot;Noto Sans&amp;quot;, sans-serif, &amp;quot;Apple Color Emoji&amp;quot;, &amp;quot;Segoe UI Emoji&amp;quot;, &amp;quot;Segoe UI Symbol&amp;quot;, &amp;quot;Noto Color Emoji&amp;quot;;&quot; class=&quot;text-neutrals-50 font-bold leading-tight mb-4 md:text-5xl text-3xl&quot;&gt;&lt;span style=&quot;font-weight: normal;&quot;&gt;H.Habibi&lt;/span&gt;&lt;/h2&gt;" style="text;html=1;strokeColor=none;fillColor=none;align=center;verticalAlign=middle;whiteSpace=wrap;rounded=0;fontSize=19;" vertex="1" parent="WTdOhSceAi6wrpTnlXMO-1">
          <mxGeometry x="650" y="2370" width="150" height="30" as="geometry" />
        </mxCell>
      </root>
    </mxGraphModel>
  </diagram>
</mxfile>
